<svg id="Layer_1" data-name="Layer 1" xmlns="http://www.w3.org/2000/svg" viewBox="0 0 172.5 442.74">
  <defs>
    <style>
      .cls-1 {
        fill: #1d1d1b;
      }
    </style>
  </defs>
  <title>logo</title>
  <path class="cls-1" d="M373,1712.84V1602.44H348.21v0H323.47V1380.91H298.72v83.47l-24.38,14.07v-97.54H200.53V1385h0v31.57l24.75-14.25v-11.52a5.8,5.8,0,0,1,5.8-5.8h12.71a5.8,5.8,0,0,1,5.8,5.8v72.69l-48.92,28.24-0.21.1v0h0v110.37h24.75V1491.16a19.34,19.34,0,0,1,9.67-16.75l6-3.47a5.8,5.8,0,0,1,8.7,5v125.83h0v36.13l24.75-14.25v-21.41h0V1492a19.34,19.34,0,0,1,9.67-16.75l6-3.47a5.8,5.8,0,0,1,8.7,5v152.74l-24.44,14.14v0L249.6,1658v32.95h0v2.44L274,1679.23,298.72,1665v20l-48.92,28.24-0.21.1v0h0v36l-24.34,14v-50.1H200.51v110.39h24.75v-46.74a19.34,19.34,0,0,1,9.67-16.75l6-3.44a5.8,5.8,0,0,1,8.7,5v62h24.75V1712.55A19.34,19.34,0,0,1,284,1695.8l6-3.47a5.8,5.8,0,0,1,8.7,5v126.22h24.75v-82.19L372.63,1713Zm-98.68-36.16v-19.49a19.34,19.34,0,0,1,9.67-16.75l6.07-3.5a5.8,5.8,0,0,1,8.7,5v20.61Zm55-70.09h13.14a5.8,5.8,0,0,1,5.8,5.8v112.32L323.47,1739V1612.4A5.8,5.8,0,0,1,329.27,1606.59Z" transform="translate(-200.46 -1380.91)"/>
</svg>
