<svg id="Layer_3" data-name="Layer 3" xmlns="http://www.w3.org/2000/svg" viewBox="0 0 1920.15 1086.24"><title>preload</title><polygon points="24.43 964.11 24.43 939.68 48.85 939.68 73.28 939.68 73.28 915.26 48.85 915.26 24.43 915.26 0 915.26 0 939.68 0 964.11 0 988.53 24.43 988.53 24.43 964.11"/><polygon points="146.56 915.26 122.13 915.26 97.7 915.26 97.7 939.68 122.13 939.68 146.56 939.68 146.56 964.11 146.56 988.53 170.98 988.53 170.98 964.11 170.98 939.68 170.98 915.26 146.56 915.26"/><polygon points="97.7 1037.39 97.7 1012.96 122.13 1012.96 122.13 988.53 97.7 988.53 97.7 964.11 73.28 964.11 73.28 988.53 48.85 988.53 48.85 1012.96 73.28 1012.96 73.28 1037.39 97.7 1037.39"/><polygon points="24.43 1061.81 24.43 1037.39 24.43 1012.96 0 1012.96 0 1037.39 0 1061.81 0 1086.24 24.43 1086.24 48.85 1086.24 73.28 1086.24 73.28 1061.81 48.85 1061.81 24.43 1061.81"/><polygon points="146.56 1037.39 146.56 1061.81 122.13 1061.81 97.7 1061.81 97.7 1086.24 122.13 1086.24 146.56 1086.24 170.98 1086.24 170.98 1061.81 170.98 1037.39 170.98 1012.96 146.56 1012.96 146.56 1037.39"/><path d="M2662.14,912.51c-9.14,0-16.57,9.1-16.57,20.29,0,5.61,1.84,20.95,4.48,34,5.46,27,10.45,27,12.09,27s6.63,0,12.09-27c2.64-13,4.48-28.39,4.48-34C2678.71,921.61,2671.28,912.51,2662.14,912.51Z" transform="translate(-2400 3.24)"/><path d="M2589.67,953.71c-4.57,7.91-.4,18.9,9.29,24.49,4.86,2.8,19.06,8.88,31.68,13.12,26.09,8.76,28.58,4.44,29.4,3s3.31-5.74-17.32-24c-10-8.81-22.34-18.07-27.2-20.88C2605.84,943.91,2594.24,945.79,2589.67,953.71Z" transform="translate(-2400 3.24)"/><path d="M2589.12,1037.06c4.57,7.91,16.17,9.8,25.86,4.2,4.86-2.8,17.22-12.07,27.2-20.88,20.63-18.22,18.14-22.54,17.32-24s-3.31-5.74-29.4,3c-12.62,4.24-26.82,10.31-31.68,13.12C2588.72,1018.16,2584.55,1029.15,2589.12,1037.06Z" transform="translate(-2400 3.24)"/><path d="M2661,1079.22c9.14,0,16.57-9.1,16.57-20.29,0-5.61-1.84-20.95-4.48-34-5.46-27-10.45-27-12.09-27s-6.63,0-12.09,27c-2.64,13-4.48,28.39-4.48,34C2644.46,1070.12,2651.9,1079.22,2661,1079.22Z" transform="translate(-2400 3.24)"/><path d="M2733.5,1038c4.57-7.91.4-18.9-9.29-24.49-4.86-2.8-19.06-8.88-31.68-13.12-26.09-8.76-28.58-4.44-29.4-3s-3.31,5.74,17.32,24c10,8.81,22.34,18.07,27.2,20.88C2717.33,1047.82,2728.93,1045.94,2733.5,1038Z" transform="translate(-2400 3.24)"/><path d="M2734.06,954.67c-4.57-7.91-16.17-9.8-25.86-4.2-4.86,2.8-17.22,12.07-27.2,20.88-20.63,18.22-18.14,22.54-17.32,24s3.31,5.74,29.4-3c12.62-4.24,26.82-10.31,31.68-13.11C2734.46,973.57,2738.62,962.58,2734.06,954.67Z" transform="translate(-2400 3.24)"/><path d="M2661.57,908.47a87.27,87.27,0,1,0,87.28,87.28A87.26,87.26,0,0,0,2661.57,908.47Zm0,170.43a83.15,83.15,0,1,1,83.15-83.15A83.18,83.18,0,0,1,2661.57,1078.9Z" transform="translate(-2400 3.24)"/><rect x="255.37" y="994.02" width="9.77" height="9.42"/><rect x="345.62" y="912.14" width="24.63" height="24.63"/><rect x="493.41" y="912.14" width="24.63" height="24.63"/><polygon points="419 959.85 419 934.19 393.33 934.19 367.67 934.19 367.67 959.85 367.67 985.52 393.33 985.52 393.33 959.85 419 959.85"/><polygon points="470.33 985.52 495.99 985.52 495.99 959.85 495.99 934.19 470.33 934.19 444.66 934.19 444.66 959.85 470.33 959.85 470.33 985.52"/><polygon points="444.66 985.52 444.66 959.85 419 959.85 419 985.52 393.33 985.52 393.33 1011.18 419 1011.18 419 1036.85 444.66 1036.85 444.66 1011.18 470.33 1011.18 470.33 985.52 444.66 985.52"/><polygon points="393.33 1011.18 367.67 1011.18 367.67 1036.85 367.67 1062.51 393.33 1062.51 419 1062.51 419 1036.85 393.33 1036.85 393.33 1011.18"/><polygon points="444.66 1036.85 444.66 1062.51 470.33 1062.51 495.99 1062.51 495.99 1036.85 495.99 1011.18 470.33 1011.18 470.33 1036.85 444.66 1036.85"/><rect x="345.62" y="1059.93" width="24.63" height="24.63"/><rect x="493.41" y="1059.93" width="24.63" height="24.63"/><polygon points="746.54 938.55 770.78 938.55 770.78 913.38 721.37 913.38 721.37 962.8 746.54 962.8 746.54 938.55"/><polygon points="824.9 962.8 850.07 962.8 850.07 913.38 800.66 913.38 800.66 938.55 824.9 938.55 824.9 962.8"/><rect x="701.29" y="986.12" width="25.17" height="25.17"/><rect x="846.76" y="986.12" width="25.17" height="25.17"/><polygon points="799.2 1035.53 799.2 1011.29 823.44 1011.29 823.44 986.12 799.2 986.12 799.2 961.87 774.03 961.87 774.03 986.12 749.78 986.12 749.78 1011.29 774.03 1011.29 774.03 1035.53 799.2 1035.53"/><polygon points="747.13 1034.61 721.96 1034.61 721.96 1084.02 771.38 1084.02 771.38 1058.85 747.13 1058.85 747.13 1034.61"/><polygon points="824.9 1058.85 800.66 1058.85 800.66 1084.02 850.07 1084.02 850.07 1034.61 824.9 1034.61 824.9 1058.85"/><path d="M3003.58,908.11a87.07,87.07,0,1,0,87.08,87.08A87.05,87.05,0,0,0,3003.58,908.11Zm63.51,75.43h-51.85V931.68A64.58,64.58,0,0,1,3067.09,983.54ZM2992,931.68v51.86H2940.1A64.58,64.58,0,0,1,2992,931.68Zm-51.87,75.13H2992v51.87A64.58,64.58,0,0,1,2940.1,1006.81Zm75.14,51.86v-51.86h51.86A64.58,64.58,0,0,1,3015.23,1058.67Z" transform="translate(-2400 3.24)"/><polygon points="899.28 961.89 899.28 937.47 923.7 937.47 948.13 937.47 948.13 913.04 923.7 913.04 899.28 913.04 874.85 913.04 874.85 937.47 874.85 961.89 874.85 986.32 899.28 986.32 899.28 961.89"/><polygon points="1021.41 913.04 996.98 913.04 972.55 913.04 972.55 937.47 996.98 937.47 1021.41 937.47 1021.41 961.89 1021.41 986.32 1045.83 986.32 1045.83 961.89 1045.83 937.47 1045.83 913.04 1021.41 913.04"/><polygon points="972.55 1035.17 972.55 1010.74 996.98 1010.74 996.98 986.32 972.55 986.32 972.55 961.89 948.13 961.89 948.13 986.32 923.7 986.32 923.7 1010.74 948.13 1010.74 948.13 1035.17 972.55 1035.17"/><polygon points="899.28 1059.6 899.28 1035.17 899.28 1010.74 874.85 1010.74 874.85 1035.17 874.85 1059.6 874.85 1084.02 899.28 1084.02 923.7 1084.02 948.13 1084.02 948.13 1059.6 923.7 1059.6 899.28 1059.6"/><polygon points="1021.41 1035.17 1021.41 1059.6 996.98 1059.6 972.55 1059.6 972.55 1084.02 996.98 1084.02 1021.41 1084.02 1045.83 1084.02 1045.83 1059.6 1045.83 1035.17 1045.83 1010.74 1021.41 1010.74 1021.41 1035.17"/><path d="M3534.88,912.51c-9.14,0-16.57,9.1-16.57,20.29,0,5.61,1.84,20.95,4.48,34,5.46,27,10.45,27,12.09,27s6.63,0,12.09-27c2.64-13,4.48-28.39,4.48-34C3551.45,921.61,3544,912.51,3534.88,912.51Z" transform="translate(-2400 3.24)"/><path d="M3462.41,953.71c-4.57,7.91-.4,18.9,9.29,24.49,4.86,2.8,19.06,8.88,31.68,13.12,26.09,8.76,28.58,4.44,29.4,3s3.31-5.74-17.32-24c-10-8.81-22.34-18.07-27.2-20.88C3478.58,943.91,3467,945.79,3462.41,953.71Z" transform="translate(-2400 3.24)"/><path d="M3461.85,1037.06c4.57,7.91,16.17,9.8,25.86,4.2,4.86-2.8,17.22-12.07,27.2-20.88,20.63-18.22,18.14-22.54,17.32-24s-3.31-5.74-29.4,3c-12.62,4.24-26.82,10.31-31.68,13.12C3461.45,1018.16,3457.29,1029.15,3461.85,1037.06Z" transform="translate(-2400 3.24)"/><path d="M3533.77,1079.22c9.14,0,16.57-9.1,16.57-20.29,0-5.61-1.84-20.95-4.48-34-5.46-27-10.45-27-12.09-27s-6.63,0-12.09,27c-2.64,13-4.48,28.39-4.48,34C3517.2,1070.12,3524.63,1079.22,3533.77,1079.22Z" transform="translate(-2400 3.24)"/><path d="M3606.23,1038c4.57-7.91.4-18.9-9.29-24.49-4.86-2.8-19.06-8.88-31.68-13.12-26.09-8.76-28.58-4.44-29.4-3s-3.31,5.74,17.32,24c10,8.81,22.34,18.07,27.2,20.88C3590.07,1047.82,3601.67,1045.94,3606.23,1038Z" transform="translate(-2400 3.24)"/><path d="M3606.79,954.67c-4.57-7.91-16.17-9.8-25.86-4.2-4.86,2.8-17.22,12.07-27.2,20.88-20.63,18.22-18.14,22.54-17.32,24s3.31,5.74,29.4-3c12.62-4.24,26.82-10.31,31.68-13.11C3607.19,973.57,3611.36,962.58,3606.79,954.67Z" transform="translate(-2400 3.24)"/><path d="M3534.3,908.47a87.27,87.27,0,1,0,87.28,87.28A87.26,87.26,0,0,0,3534.3,908.47Zm0,170.43a83.15,83.15,0,1,1,83.15-83.15A83.18,83.18,0,0,1,3534.3,1078.9Z" transform="translate(-2400 3.24)"/><rect x="1128.11" y="994.02" width="9.77" height="9.42"/><rect x="1225.85" y="912.14" width="24.63" height="24.63"/><rect x="1373.65" y="912.14" width="24.63" height="24.63"/><polygon points="1299.23 959.85 1299.23 934.19 1273.57 934.19 1247.9 934.19 1247.9 959.85 1247.9 985.52 1273.57 985.52 1273.57 959.85 1299.23 959.85"/><polygon points="1350.56 985.52 1376.23 985.52 1376.23 959.85 1376.23 934.19 1350.56 934.19 1324.9 934.19 1324.9 959.85 1350.56 959.85 1350.56 985.52"/><polygon points="1324.9 985.52 1324.9 959.85 1299.23 959.85 1299.23 985.52 1273.57 985.52 1273.57 1011.18 1299.23 1011.18 1299.23 1036.85 1324.9 1036.85 1324.9 1011.18 1350.56 1011.18 1350.56 985.52 1324.9 985.52"/><polygon points="1273.57 1011.18 1247.9 1011.18 1247.9 1036.85 1247.9 1062.51 1273.57 1062.51 1299.23 1062.51 1299.23 1036.85 1273.57 1036.85 1273.57 1011.18"/><polygon points="1324.9 1036.85 1324.9 1062.51 1350.56 1062.51 1376.23 1062.51 1376.23 1036.85 1376.23 1011.18 1350.56 1011.18 1350.56 1036.85 1324.9 1036.85"/><rect x="1225.85" y="1059.93" width="24.63" height="24.63"/><rect x="1373.65" y="1059.93" width="24.63" height="24.63"/><polygon points="1622.27 938.55 1646.52 938.55 1646.52 913.38 1597.1 913.38 1597.1 962.8 1622.27 962.8 1622.27 938.55"/><polygon points="1700.64 962.8 1725.81 962.8 1725.81 913.38 1676.39 913.38 1676.39 938.55 1700.64 938.55 1700.64 962.8"/><rect x="1577.03" y="986.12" width="25.17" height="25.17"/><rect x="1722.5" y="986.12" width="25.17" height="25.17"/><polygon points="1674.93 1035.53 1674.93 1011.29 1699.18 1011.29 1699.18 986.12 1674.93 986.12 1674.93 961.87 1649.76 961.87 1649.76 986.12 1625.52 986.12 1625.52 1011.29 1649.76 1011.29 1649.76 1035.53 1674.93 1035.53"/><polygon points="1622.87 1034.61 1597.7 1034.61 1597.7 1084.02 1647.11 1084.02 1647.11 1058.85 1622.87 1058.85 1622.87 1034.61"/><polygon points="1700.64 1058.85 1676.39 1058.85 1676.39 1084.02 1725.81 1084.02 1725.81 1034.61 1700.64 1034.61 1700.64 1058.85"/><path d="M3885.32,908.11a87.07,87.07,0,1,0,87.08,87.08A87.05,87.05,0,0,0,3885.32,908.11Zm63.51,75.43H3897V931.68A64.58,64.58,0,0,1,3948.82,983.54Zm-75.12-51.86v51.86h-51.86A64.58,64.58,0,0,1,3873.7,931.68Zm-51.87,75.13h51.87v51.87A64.58,64.58,0,0,1,3821.83,1006.81Zm75.14,51.86v-51.86h51.86A64.58,64.58,0,0,1,3897,1058.67Z" transform="translate(-2400 3.24)"/><polygon points="1773.44 961.89 1773.44 937.47 1797.87 937.47 1822.3 937.47 1822.3 913.04 1797.87 913.04 1773.44 913.04 1749.02 913.04 1749.02 937.47 1749.02 961.89 1749.02 986.32 1773.44 986.32 1773.44 961.89"/><polygon points="1895.57 913.04 1871.15 913.04 1846.72 913.04 1846.72 937.47 1871.15 937.47 1895.57 937.47 1895.57 961.89 1895.57 986.32 1920 986.32 1920 961.89 1920 937.47 1920 913.04 1895.57 913.04"/><polygon points="1846.72 1035.17 1846.72 1010.74 1871.15 1010.74 1871.15 986.32 1846.72 986.32 1846.72 961.89 1822.3 961.89 1822.3 986.32 1797.87 986.32 1797.87 1010.74 1822.3 1010.74 1822.3 1035.17 1846.72 1035.17"/><polygon points="1773.44 1059.6 1773.44 1035.17 1773.44 1010.74 1749.02 1010.74 1749.02 1035.17 1749.02 1059.6 1749.02 1084.02 1773.44 1084.02 1797.87 1084.02 1822.3 1084.02 1822.3 1059.6 1797.87 1059.6 1773.44 1059.6"/><polygon points="1895.57 1035.17 1895.57 1059.6 1871.15 1059.6 1846.72 1059.6 1846.72 1084.02 1871.15 1084.02 1895.57 1084.02 1920 1084.02 1920 1059.6 1920 1035.17 1920 1010.74 1895.57 1010.74 1895.57 1035.17"/><polygon points="48.91 760.37 73.16 760.37 73.16 735.2 23.75 735.2 23.75 784.61 48.91 784.61 48.91 760.37"/><polygon points="127.28 784.61 152.45 784.61 152.45 735.2 103.04 735.2 103.04 760.37 127.28 760.37 127.28 784.61"/><rect x="3.67" y="807.93" width="25.17" height="25.17"/><rect x="149.14" y="807.93" width="25.17" height="25.17"/><polygon points="101.57 857.35 101.57 833.1 125.82 833.1 125.82 807.93 101.57 807.93 101.57 783.69 76.41 783.69 76.41 807.93 52.16 807.93 52.16 833.1 76.41 833.1 76.41 857.35 101.57 857.35"/><polygon points="49.51 856.42 24.34 856.42 24.34 905.84 73.75 905.84 73.75 880.67 49.51 880.67 49.51 856.42"/><polygon points="127.28 880.67 103.04 880.67 103.04 905.84 152.45 905.84 152.45 856.42 127.28 856.42 127.28 880.67"/><polygon points="198.17 783.71 198.17 759.28 222.6 759.28 247.03 759.28 247.03 734.86 222.6 734.86 198.17 734.86 173.75 734.86 173.75 759.28 173.75 783.71 173.75 808.13 198.17 808.13 198.17 783.71"/><polygon points="320.3 734.86 295.88 734.86 271.45 734.86 271.45 759.28 295.88 759.28 320.3 759.28 320.3 783.71 320.3 808.13 344.73 808.13 344.73 783.71 344.73 759.28 344.73 734.86 320.3 734.86"/><polygon points="271.45 856.99 271.45 832.56 295.88 832.56 295.88 808.13 271.45 808.13 271.45 783.71 247.03 783.71 247.03 808.13 222.6 808.13 222.6 832.56 247.03 832.56 247.03 856.99 271.45 856.99"/><polygon points="198.17 881.41 198.17 856.99 198.17 832.56 173.75 832.56 173.75 856.99 173.75 881.41 173.75 905.84 198.17 905.84 222.6 905.84 247.03 905.84 247.03 881.41 222.6 881.41 198.17 881.41"/><polygon points="320.3 856.99 320.3 881.41 295.88 881.41 271.45 881.41 271.45 905.84 295.88 905.84 320.3 905.84 344.73 905.84 344.73 881.41 344.73 856.99 344.73 832.56 320.3 832.56 320.3 856.99"/><rect x="517.25" y="733.95" width="24.63" height="24.63"/><rect x="665.04" y="733.95" width="24.63" height="24.63"/><polygon points="590.63 781.67 590.63 756 564.96 756 539.3 756 539.3 781.67 539.3 807.33 564.96 807.33 564.96 781.67 590.63 781.67"/><polygon points="641.96 807.33 667.62 807.33 667.62 781.67 667.62 756 641.96 756 616.29 756 616.29 781.67 641.96 781.67 641.96 807.33"/><polygon points="616.29 807.33 616.29 781.67 590.63 781.67 590.63 807.33 564.96 807.33 564.96 833 590.63 833 590.63 858.66 616.29 858.66 616.29 833 641.96 833 641.96 807.33 616.29 807.33"/><polygon points="564.96 833 539.3 833 539.3 858.66 539.3 884.33 564.96 884.33 590.63 884.33 590.63 858.66 564.96 858.66 564.96 833"/><polygon points="616.29 858.66 616.29 884.33 641.96 884.33 667.62 884.33 667.62 858.66 667.62 833 641.96 833 641.96 858.66 616.29 858.66"/><rect x="517.25" y="881.75" width="24.63" height="24.63"/><rect x="665.04" y="881.75" width="24.63" height="24.63"/><path d="M3187.21,729.93A87.07,87.07,0,1,0,3274.29,817,87.05,87.05,0,0,0,3187.21,729.93Zm63.51,75.43h-51.85V753.5A64.58,64.58,0,0,1,3250.72,805.35Zm-75.12-51.86v51.86h-51.86A64.58,64.58,0,0,1,3175.59,753.49Zm-51.87,75.13h51.87v51.87A64.58,64.58,0,0,1,3123.73,828.62Zm75.14,51.86V828.62h51.86A64.58,64.58,0,0,1,3198.86,880.49Z" transform="translate(-2400 3.24)"/><path d="M2917.81,805.78a86.09,86.09,0,0,0-6.64-23.56c-0.41-.94-0.86-1.85-1.27-2.76A86.83,86.83,0,0,0,2871,740c-0.91-.47-1.82-0.91-2.76-1.33a85,85,0,0,0-24.33-7.11,88,88,0,0,0-11.83-.8,87.09,87.09,0,0,0-35.33,7.52c-0.94.41-1.85,0.86-2.76,1.33a86.7,86.7,0,0,0-39.68,39.84c-0.44.91-.88,1.82-1.3,2.76a86.08,86.08,0,0,0-6.64,23.56,87.25,87.25,0,0,0-.75,11.47,82.86,82.86,0,0,0,.86,12.08,85.44,85.44,0,0,0,7.19,24.39c0.44,0.94.88,1.85,1.35,2.76a86.82,86.82,0,0,0,39,38.4c0.91,0.44,1.82.88,2.76,1.3a87.09,87.09,0,0,0,35.33,7.52,88,88,0,0,0,11.83-.8,85,85,0,0,0,24.33-7.11c0.94-.41,1.85-0.86,2.76-1.33a87,87,0,0,0,38.18-38c0.44-.91.88-1.82,1.33-2.76a85.89,85.89,0,0,0,8-36.47A87.27,87.27,0,0,0,2917.81,805.78Zm-12.52-26.32H2871.1l2.32-.92a15.67,15.67,0,0,0,7-5.48l9.73-13.68,0.1-.1-0.06,0,0-.06-0.1.1-13.68,9.73A15.67,15.67,0,0,0,2871,776V744.65A82.44,82.44,0,0,1,2905.29,779.46Zm-37-36.25v39h38.4a79.88,79.88,0,0,1,7,23.56h-69.76V735.72A81.19,81.19,0,0,1,2868.24,743.21Zm-74.26,1v34.27l-0.95-2.39a15.67,15.67,0,0,0-5.48-7l-13.68-9.73-0.1-.1,0,0.06-0.06,0,0.09,0.1,9.74,13.68a15.67,15.67,0,0,0,7,5.48l2.32,0.92h-34A82.11,82.11,0,0,1,2794,744.21Zm-36.47,38h39.23v-39.4a81.48,81.48,0,0,1,23.61-7.13v70.09h-69.87A81.56,81.56,0,0,1,2757.51,782.22Zm2.1,74.26h30.59a15.66,15.66,0,0,0-6.6,5.29l-9.74,13.68,0,0A82.92,82.92,0,0,1,2759.61,856.49Zm14.22,19,0,0,13.68-9.73a15.68,15.68,0,0,0,5.48-7l0.9-2.27h0V890.3A83.13,83.13,0,0,1,2773.83,875.52Zm22.91,16.17v-38H2758.2a81.21,81.21,0,0,1-7.63-24.39h69.78v69.48A81.49,81.49,0,0,1,2796.74,891.69Zm74.26-1.82v-31a15.67,15.67,0,0,0,5.44,6.9l13.68,9.73,0.1,0.1,0-.06,0.06,0-0.1-.09-9.73-13.68a15.66,15.66,0,0,0-6.6-5.29h30.77A83,83,0,0,1,2871,889.86ZM2906,853.72h-37.71V891.3a81.19,81.19,0,0,1-24.33,7.49V829.34h69.67A81.21,81.21,0,0,1,2906,853.72Z" transform="translate(-2400 3.24)"/><polygon points="921.65 760.37 945.89 760.37 945.89 735.2 896.48 735.2 896.48 784.61 921.65 784.61 921.65 760.37"/><polygon points="1000.01 784.61 1025.18 784.61 1025.18 735.2 975.77 735.2 975.77 760.37 1000.01 760.37 1000.01 784.61"/><rect x="876.41" y="807.93" width="25.17" height="25.17"/><rect x="1021.88" y="807.93" width="25.17" height="25.17"/><polygon points="974.31 857.35 974.31 833.1 998.55 833.1 998.55 807.93 974.31 807.93 974.31 783.69 949.14 783.69 949.14 807.93 924.9 807.93 924.9 833.1 949.14 833.1 949.14 857.35 974.31 857.35"/><polygon points="922.24 856.42 897.08 856.42 897.08 905.84 946.49 905.84 946.49 880.67 922.24 880.67 922.24 856.42"/><polygon points="1000.01 880.67 975.77 880.67 975.77 905.84 1025.18 905.84 1025.18 856.42 1000.01 856.42 1000.01 880.67"/><polygon points="1075.91 783.71 1075.91 759.28 1100.33 759.28 1124.76 759.28 1124.76 734.86 1100.33 734.86 1075.91 734.86 1051.48 734.86 1051.48 759.28 1051.48 783.71 1051.48 808.13 1075.91 808.13 1075.91 783.71"/><polygon points="1198.04 734.86 1173.61 734.86 1149.18 734.86 1149.18 759.28 1173.61 759.28 1198.04 759.28 1198.04 783.71 1198.04 808.13 1222.46 808.13 1222.46 783.71 1222.46 759.28 1222.46 734.86 1198.04 734.86"/><polygon points="1149.18 856.99 1149.18 832.56 1173.61 832.56 1173.61 808.13 1149.18 808.13 1149.18 783.71 1124.76 783.71 1124.76 808.13 1100.33 808.13 1100.33 832.56 1124.76 832.56 1124.76 856.99 1149.18 856.99"/><polygon points="1075.91 881.41 1075.91 856.99 1075.91 832.56 1051.48 832.56 1051.48 856.99 1051.48 881.41 1051.48 905.84 1075.91 905.84 1100.33 905.84 1124.76 905.84 1124.76 881.41 1100.33 881.41 1075.91 881.41"/><polygon points="1198.04 856.99 1198.04 881.41 1173.61 881.41 1149.18 881.41 1149.18 905.84 1173.61 905.84 1198.04 905.84 1222.46 905.84 1222.46 881.41 1222.46 856.99 1222.46 832.56 1198.04 832.56 1198.04 856.99"/><rect x="1398.98" y="733.95" width="24.63" height="24.63"/><rect x="1546.78" y="733.95" width="24.63" height="24.63"/><polygon points="1472.36 781.67 1472.36 756 1446.7 756 1421.03 756 1421.03 781.67 1421.03 807.33 1446.7 807.33 1446.7 781.67 1472.36 781.67"/><polygon points="1523.69 807.33 1549.36 807.33 1549.36 781.67 1549.36 756 1523.69 756 1498.03 756 1498.03 781.67 1523.69 781.67 1523.69 807.33"/><polygon points="1498.03 807.33 1498.03 781.67 1472.36 781.67 1472.36 807.33 1446.7 807.33 1446.7 833 1472.36 833 1472.36 858.66 1498.03 858.66 1498.03 833 1523.69 833 1523.69 807.33 1498.03 807.33"/><polygon points="1446.7 833 1421.03 833 1421.03 858.66 1421.03 884.33 1446.7 884.33 1472.36 884.33 1472.36 858.66 1446.7 858.66 1446.7 833"/><polygon points="1498.03 858.66 1498.03 884.33 1523.69 884.33 1549.36 884.33 1549.36 858.66 1549.36 833 1523.69 833 1523.69 858.66 1498.03 858.66"/><rect x="1398.98" y="881.75" width="24.63" height="24.63"/><rect x="1546.78" y="881.75" width="24.63" height="24.63"/><path d="M4062.94,729.93A87.07,87.07,0,1,0,4150,817,87.05,87.05,0,0,0,4062.94,729.93Zm63.51,75.43H4074.6V753.5A64.58,64.58,0,0,1,4126.45,805.35Zm-75.12-51.86v51.86h-51.86A64.58,64.58,0,0,1,4051.33,753.49Zm-51.87,75.13h51.87v51.87A64.58,64.58,0,0,1,3999.46,828.62Zm75.14,51.86V828.62h51.86A64.58,64.58,0,0,1,4074.6,880.49Z" transform="translate(-2400 3.24)"/><path d="M3798,805.78a86.09,86.09,0,0,0-6.64-23.56c-0.41-.94-0.86-1.85-1.27-2.76a86.83,86.83,0,0,0-38.9-39.45c-0.91-.47-1.82-0.91-2.76-1.33a85,85,0,0,0-24.33-7.11,88,88,0,0,0-11.83-.8,87.09,87.09,0,0,0-35.33,7.52c-0.94.41-1.85,0.86-2.76,1.33a86.7,86.7,0,0,0-39.68,39.84c-0.44.91-.88,1.82-1.3,2.76a86.08,86.08,0,0,0-6.64,23.56,87.25,87.25,0,0,0-.75,11.47,82.87,82.87,0,0,0,.86,12.08,85.44,85.44,0,0,0,7.19,24.39c0.44,0.94.88,1.85,1.35,2.76a86.82,86.82,0,0,0,39,38.4c0.91,0.44,1.82.88,2.76,1.3a87.09,87.09,0,0,0,35.33,7.52,88,88,0,0,0,11.83-.8,85,85,0,0,0,24.33-7.11c0.94-.41,1.85-0.86,2.76-1.33a87,87,0,0,0,38.18-38c0.44-.91.88-1.82,1.33-2.76a85.88,85.88,0,0,0,8-36.47A87.27,87.27,0,0,0,3798,805.78Zm-12.52-26.32h-34.19l2.32-.92a15.67,15.67,0,0,0,7-5.48l9.73-13.68,0.1-.1-0.06,0,0-.06-0.1.1-13.68,9.73a15.67,15.67,0,0,0-5.44,6.9V744.65A82.44,82.44,0,0,1,3785.52,779.46Zm-37-36.25v39h38.4a79.88,79.88,0,0,1,7,23.56h-69.76V735.72A81.19,81.19,0,0,1,3748.47,743.21Zm-74.26,1v34.27l-0.95-2.39a15.67,15.67,0,0,0-5.48-7l-13.68-9.73-0.09-.1,0,0.06-0.06,0,0.09,0.1,9.74,13.68a15.67,15.67,0,0,0,7,5.48l2.32,0.92h-34A82.11,82.11,0,0,1,3674.21,744.21Zm-36.47,38H3677v-39.4a81.48,81.48,0,0,1,23.61-7.13v70.09h-69.87A81.56,81.56,0,0,1,3637.74,782.22Zm2.1,74.26h30.59a15.66,15.66,0,0,0-6.6,5.29l-9.74,13.68,0,0A82.92,82.92,0,0,1,3639.84,856.49Zm14.22,19,0,0,13.68-9.73a15.68,15.68,0,0,0,5.48-7l0.9-2.27h0V890.3A83.13,83.13,0,0,1,3654.06,875.52ZM3677,891.69v-38h-38.54a81.2,81.2,0,0,1-7.63-24.39h69.78v69.48A81.49,81.49,0,0,1,3677,891.69Zm74.26-1.82v-31a15.67,15.67,0,0,0,5.44,6.9l13.68,9.73,0.1,0.1,0-.06,0.06,0-0.1-.09-9.73-13.68a15.66,15.66,0,0,0-6.6-5.29h30.77A83,83,0,0,1,3751.24,889.86Zm34.95-36.14h-37.71V891.3a81.19,81.19,0,0,1-24.33,7.49V829.34h69.67A81.21,81.21,0,0,1,3786.19,853.72Z" transform="translate(-2400 3.24)"/><polygon points="1791.38 760.37 1815.63 760.37 1815.63 735.2 1766.21 735.2 1766.21 784.61 1791.38 784.61 1791.38 760.37"/><polygon points="1869.75 784.61 1894.92 784.61 1894.92 735.2 1845.51 735.2 1845.51 760.37 1869.75 760.37 1869.75 784.61"/><rect x="1746.14" y="807.93" width="25.17" height="25.17"/><rect x="1891.61" y="807.93" width="25.17" height="25.17"/><polygon points="1844.04 857.35 1844.04 833.1 1868.29 833.1 1868.29 807.93 1844.04 807.93 1844.04 783.69 1818.88 783.69 1818.88 807.93 1794.63 807.93 1794.63 833.1 1818.88 833.1 1818.88 857.35 1844.04 857.35"/><polygon points="1791.98 856.42 1766.81 856.42 1766.81 905.84 1816.22 905.84 1816.22 880.67 1791.98 880.67 1791.98 856.42"/><polygon points="1869.75 880.67 1845.51 880.67 1845.51 905.84 1894.92 905.84 1894.92 856.42 1869.75 856.42 1869.75 880.67"/><polygon points="26.54 50.54 26.54 26.12 50.97 26.12 75.39 26.12 75.39 1.69 50.97 1.69 26.54 1.69 2.12 1.69 2.12 26.12 2.12 50.54 2.12 74.97 26.54 74.97 26.54 50.54"/><polygon points="148.67 1.69 124.25 1.69 99.82 1.69 99.82 26.12 124.25 26.12 148.67 26.12 148.67 50.54 148.67 74.97 173.1 74.97 173.1 50.54 173.1 26.12 173.1 1.69 148.67 1.69"/><polygon points="99.82 123.82 99.82 99.39 124.25 99.39 124.25 74.97 99.82 74.97 99.82 50.54 75.39 50.54 75.39 74.97 50.97 74.97 50.97 99.39 75.39 99.39 75.39 123.82 99.82 123.82"/><polygon points="26.54 148.25 26.54 123.82 26.54 99.39 2.12 99.39 2.12 123.82 2.12 148.25 2.12 172.67 26.54 172.67 50.97 172.67 75.39 172.67 75.39 148.25 50.97 148.25 26.54 148.25"/><polygon points="148.67 123.82 148.67 148.25 124.25 148.25 99.82 148.25 99.82 172.67 124.25 172.67 148.67 172.67 173.1 172.67 173.1 148.25 173.1 123.82 173.1 99.39 148.67 99.39 148.67 123.82"/><path d="M2662.14,1.16c-9.14,0-16.57,9.1-16.57,20.29,0,5.61,1.84,20.95,4.48,34,5.46,27,10.45,27,12.09,27s6.63,0,12.09-27c2.64-13,4.48-28.39,4.48-34C2678.71,10.26,2671.28,1.16,2662.14,1.16Z" transform="translate(-2400 3.24)"/><path d="M2589.67,42.36c-4.57,7.91-.4,18.9,9.29,24.49,4.86,2.8,19.06,8.88,31.68,13.12,26.09,8.76,28.58,4.44,29.4,3s3.31-5.74-17.32-24c-10-8.81-22.34-18.07-27.2-20.88C2605.84,32.56,2594.24,34.44,2589.67,42.36Z" transform="translate(-2400 3.24)"/><path d="M2589.12,125.72c4.57,7.91,16.17,9.8,25.86,4.2,4.86-2.8,17.22-12.07,27.2-20.88,20.63-18.22,18.14-22.54,17.32-24s-3.31-5.74-29.4,3c-12.62,4.24-26.82,10.31-31.68,13.12C2588.72,106.82,2584.55,117.8,2589.12,125.72Z" transform="translate(-2400 3.24)"/><path d="M2661,167.88c9.14,0,16.57-9.1,16.57-20.29,0-5.61-1.84-20.95-4.48-34-5.46-27-10.45-27-12.09-27s-6.63,0-12.09,27c-2.64,13-4.48,28.39-4.48,34C2644.46,158.77,2651.9,167.88,2661,167.88Z" transform="translate(-2400 3.24)"/><path d="M2733.5,126.68c4.57-7.91.4-18.9-9.29-24.49-4.86-2.8-19.06-8.88-31.68-13.12-26.09-8.76-28.58-4.44-29.4-3s-3.31,5.74,17.32,24c10,8.81,22.34,18.07,27.2,20.88C2717.33,136.48,2728.93,134.59,2733.5,126.68Z" transform="translate(-2400 3.24)"/><path d="M2734.06,43.32c-4.57-7.91-16.17-9.8-25.86-4.2C2703.34,41.92,2691,51.18,2681,60c-20.63,18.22-18.14,22.54-17.32,24s3.31,5.74,29.4-3c12.62-4.24,26.82-10.31,31.68-13.12C2734.46,62.22,2738.62,51.23,2734.06,43.32Z" transform="translate(-2400 3.24)"/><path d="M2661.57-2.88a87.27,87.27,0,1,0,87.28,87.28A87.26,87.26,0,0,0,2661.57-2.88Zm0,170.43a83.15,83.15,0,1,1,83.15-83.15A83.18,83.18,0,0,1,2661.57,167.55Z" transform="translate(-2400 3.24)"/><rect x="255.37" y="82.67" width="9.77" height="9.42"/><path d="M2491,183.39c-9.14,0-16.57,9.1-16.57,20.29,0,5.61,1.84,20.95,4.48,34,5.46,27,10.45,27,12.09,27s6.63,0,12.09-27c2.64-13,4.48-28.39,4.48-34C2507.54,192.49,2500.11,183.39,2491,183.39Z" transform="translate(-2400 3.24)"/><path d="M2418.5,224.59c-4.57,7.91-.4,18.9,9.29,24.49,4.86,2.8,19.06,8.88,31.68,13.11,26.09,8.76,28.58,4.44,29.4,3s3.31-5.74-17.32-24c-10-8.81-22.34-18.07-27.2-20.88C2434.67,214.79,2423.07,216.67,2418.5,224.59Z" transform="translate(-2400 3.24)"/><path d="M2417.95,307.94c4.57,7.91,16.17,9.8,25.86,4.2,4.86-2.8,17.22-12.07,27.2-20.88,20.63-18.22,18.14-22.54,17.32-24s-3.31-5.74-29.4,3c-12.62,4.24-26.82,10.31-31.68,13.12C2417.54,289,2413.38,300,2417.95,307.94Z" transform="translate(-2400 3.24)"/><path d="M2489.86,350.11c9.14,0,16.57-9.1,16.57-20.29,0-5.61-1.84-20.95-4.48-34-5.46-27-10.45-27-12.09-27s-6.63,0-12.09,27c-2.64,13-4.48,28.39-4.48,34C2473.29,341,2480.72,350.11,2489.86,350.11Z" transform="translate(-2400 3.24)"/><path d="M2562.33,308.91c4.57-7.91.4-18.9-9.29-24.49-4.86-2.8-19.06-8.88-31.68-13.12-26.09-8.76-28.58-4.44-29.4-3s-3.31,5.74,17.32,24c10,8.81,22.34,18.07,27.2,20.88C2546.16,318.7,2557.76,316.82,2562.33,308.91Z" transform="translate(-2400 3.24)"/><path d="M2562.88,225.55c-4.57-7.91-16.17-9.8-25.86-4.2-4.86,2.8-17.22,12.07-27.2,20.88-20.63,18.22-18.14,22.54-17.32,24s3.31,5.74,29.4-3c12.62-4.24,26.82-10.31,31.68-13.12C2563.28,244.45,2567.45,233.46,2562.88,225.55Z" transform="translate(-2400 3.24)"/><path d="M2490.4,179.35a87.27,87.27,0,1,0,87.28,87.28A87.26,87.26,0,0,0,2490.4,179.35Zm0,170.43a83.15,83.15,0,1,1,83.15-83.15A83.18,83.18,0,0,1,2490.4,349.78Z" transform="translate(-2400 3.24)"/><rect x="84.2" y="264.9" width="9.77" height="9.42"/><path d="M2659.06,180.23a86,86,0,1,0,86,86A86,86,0,0,0,2659.06,180.23Zm0,148.77a62.76,62.76,0,1,1,62.76-62.76A62.77,62.77,0,0,1,2659.06,329Z" transform="translate(-2400 3.24)"/><path d="M2659.31,204.47c-6.88,0-12.45,5.86-12.45,13.09S2658.63,266,2659.31,266s12.45-41.26,12.45-48.49S2666.19,204.47,2659.31,204.47Z" transform="translate(-2400 3.24)"/><path d="M2615.56,222.38c-4.86,4.86-4.66,12.95.45,18.06s42.61,26,43.09,25.48-20.37-38-25.48-43.09S2620.42,217.52,2615.56,222.38Z" transform="translate(-2400 3.24)"/><path d="M2597.29,266c0,6.88,5.86,12.45,13.09,12.45s48.49-11.77,48.49-12.45-41.26-12.45-48.49-12.45S2597.29,259.12,2597.29,266Z" transform="translate(-2400 3.24)"/><path d="M2615.2,309.75c4.86,4.86,12.95,4.66,18.06-.45s26-42.61,25.48-43.09-38,20.37-43.09,25.48S2610.34,304.89,2615.2,309.75Z" transform="translate(-2400 3.24)"/><path d="M2658.81,328c6.88,0,12.45-5.86,12.45-13.09s-11.77-48.49-12.45-48.49-12.45,41.26-12.45,48.49S2651.93,328,2658.81,328Z" transform="translate(-2400 3.24)"/><path d="M2702.56,310.1c4.86-4.86,4.66-12.95-.45-18.06s-42.61-26-43.09-25.48,20.37,38,25.48,43.09S2697.7,315,2702.56,310.1Z" transform="translate(-2400 3.24)"/><path d="M2720.84,266.5c0-6.88-5.86-12.45-13.09-12.45s-48.49,11.77-48.49,12.45,41.26,12.45,48.49,12.45S2720.84,273.37,2720.84,266.5Z" transform="translate(-2400 3.24)"/><path d="M2702.92,222.74c-4.86-4.86-12.95-4.66-18.06.45s-26,42.61-25.48,43.09,38-20.37,43.09-25.48S2707.78,227.6,2702.92,222.74Z" transform="translate(-2400 3.24)"/><circle cx="259.03" cy="269.51" r="11.35"/><rect x="345.62" y="0.79" width="24.63" height="24.63"/><rect x="493.41" y="0.79" width="24.63" height="24.63"/><polygon points="419 48.5 419 22.84 393.33 22.84 367.67 22.84 367.67 48.5 367.67 74.17 393.33 74.17 393.33 48.5 419 48.5"/><polygon points="470.33 74.17 495.99 74.17 495.99 48.5 495.99 22.84 470.33 22.84 444.66 22.84 444.66 48.5 470.33 48.5 470.33 74.17"/><polygon points="444.66 74.17 444.66 48.5 419 48.5 419 74.17 393.33 74.17 393.33 99.83 419 99.83 419 125.5 444.66 125.5 444.66 99.83 470.33 99.83 470.33 74.17 444.66 74.17"/><polygon points="393.33 99.83 367.67 99.83 367.67 125.5 367.67 151.16 393.33 151.16 419 151.16 419 125.5 393.33 125.5 393.33 99.83"/><polygon points="444.66 125.5 444.66 151.16 470.33 151.16 495.99 151.16 495.99 125.5 495.99 99.83 470.33 99.83 470.33 125.5 444.66 125.5"/><rect x="345.62" y="148.58" width="24.63" height="24.63"/><rect x="493.41" y="148.58" width="24.63" height="24.63"/><polygon points="746.54 27.2 770.78 27.2 770.78 2.04 721.37 2.04 721.37 51.45 746.54 51.45 746.54 27.2"/><polygon points="824.9 51.45 850.07 51.45 850.07 2.04 800.66 2.04 800.66 27.2 824.9 27.2 824.9 51.45"/><rect x="701.29" y="74.77" width="25.17" height="25.17"/><rect x="846.76" y="74.77" width="25.17" height="25.17"/><polygon points="799.2 124.18 799.2 99.94 823.44 99.94 823.44 74.77 799.2 74.77 799.2 50.52 774.03 50.52 774.03 74.77 749.78 74.77 749.78 99.94 774.03 99.94 774.03 124.18 799.2 124.18"/><polygon points="747.13 123.26 721.96 123.26 721.96 172.67 771.38 172.67 771.38 147.5 747.13 147.5 747.13 123.26"/><polygon points="824.9 147.5 800.66 147.5 800.66 172.67 850.07 172.67 850.07 123.26 824.9 123.26 824.9 147.5"/><path d="M3003.58-3.24a87.07,87.07,0,1,0,87.08,87.08A87.05,87.05,0,0,0,3003.58-3.24Zm63.51,75.43h-51.85V20.33A64.58,64.58,0,0,1,3067.09,72.19ZM2992,20.33V72.19H2940.1A64.58,64.58,0,0,1,2992,20.33ZM2940.1,95.46H2992v51.87A64.58,64.58,0,0,1,2940.1,95.46Zm75.14,51.86V95.46h51.86A64.58,64.58,0,0,1,3015.23,147.32Z" transform="translate(-2400 3.24)"/><polygon points="563.36 209.43 587.61 209.43 587.61 184.26 538.2 184.26 538.2 233.68 563.36 233.68 563.36 209.43"/><polygon points="641.73 233.68 666.9 233.68 666.9 184.26 617.49 184.26 617.49 209.43 641.73 209.43 641.73 233.68"/><rect x="518.12" y="257" width="25.17" height="25.17"/><rect x="663.59" y="257" width="25.17" height="25.17"/><polygon points="616.02 306.41 616.02 282.17 640.27 282.17 640.27 257 616.02 257 616.02 232.75 590.86 232.75 590.86 257 566.61 257 566.61 282.17 590.86 282.17 590.86 306.41 616.02 306.41"/><polygon points="563.96 305.49 538.79 305.49 538.79 354.9 588.2 354.9 588.2 329.73 563.96 329.73 563.96 305.49"/><polygon points="641.73 329.73 617.49 329.73 617.49 354.9 666.9 354.9 666.9 305.49 641.73 305.49 641.73 329.73"/><path d="M2832.41,179a87.07,87.07,0,1,0,87.08,87.08A87.05,87.05,0,0,0,2832.41,179Zm63.51,75.43h-51.85V202.56A64.58,64.58,0,0,1,2895.92,254.42Zm-75.12-51.86v51.86h-51.86A64.58,64.58,0,0,1,2820.79,202.56Zm-51.87,75.13h51.87v51.87A64.58,64.58,0,0,1,2768.92,277.69Zm75.14,51.86V277.69h51.86A64.58,64.58,0,0,1,2844.06,329.55Z" transform="translate(-2400 3.24)"/><polygon points="899.28 50.54 899.28 26.12 923.7 26.12 948.13 26.12 948.13 1.69 923.7 1.69 899.28 1.69 874.85 1.69 874.85 26.12 874.85 50.54 874.85 74.97 899.28 74.97 899.28 50.54"/><polygon points="1021.41 1.69 996.98 1.69 972.55 1.69 972.55 26.12 996.98 26.12 1021.41 26.12 1021.41 50.54 1021.41 74.97 1045.83 74.97 1045.83 50.54 1045.83 26.12 1045.83 1.69 1021.41 1.69"/><polygon points="972.55 123.82 972.55 99.39 996.98 99.39 996.98 74.97 972.55 74.97 972.55 50.54 948.13 50.54 948.13 74.97 923.7 74.97 923.7 99.39 948.13 99.39 948.13 123.82 972.55 123.82"/><polygon points="899.28 148.25 899.28 123.82 899.28 99.39 874.85 99.39 874.85 123.82 874.85 148.25 874.85 172.67 899.28 172.67 923.7 172.67 948.13 172.67 948.13 148.25 923.7 148.25 899.28 148.25"/><polygon points="1021.41 123.82 1021.41 148.25 996.98 148.25 972.55 148.25 972.55 172.67 996.98 172.67 1021.41 172.67 1045.83 172.67 1045.83 148.25 1045.83 123.82 1045.83 99.39 1021.41 99.39 1021.41 123.82"/><path d="M3534.88,1.16c-9.14,0-16.57,9.1-16.57,20.29,0,5.61,1.84,20.95,4.48,34,5.46,27,10.45,27,12.09,27s6.63,0,12.09-27c2.64-13,4.48-28.39,4.48-34C3551.45,10.26,3544,1.16,3534.88,1.16Z" transform="translate(-2400 3.24)"/><path d="M3462.41,42.36c-4.57,7.91-.4,18.9,9.29,24.49,4.86,2.8,19.06,8.88,31.68,13.12,26.09,8.76,28.58,4.44,29.4,3s3.31-5.74-17.32-24c-10-8.81-22.34-18.07-27.2-20.88C3478.58,32.56,3467,34.44,3462.41,42.36Z" transform="translate(-2400 3.24)"/><path d="M3461.85,125.72c4.57,7.91,16.17,9.8,25.86,4.2,4.86-2.8,17.22-12.07,27.2-20.88,20.63-18.22,18.14-22.54,17.32-24s-3.31-5.74-29.4,3c-12.62,4.24-26.82,10.31-31.68,13.12C3461.45,106.82,3457.29,117.8,3461.85,125.72Z" transform="translate(-2400 3.24)"/><path d="M3533.77,167.88c9.14,0,16.57-9.1,16.57-20.29,0-5.61-1.84-20.95-4.48-34-5.46-27-10.45-27-12.09-27s-6.63,0-12.09,27c-2.64,13-4.48,28.39-4.48,34C3517.2,158.77,3524.63,167.88,3533.77,167.88Z" transform="translate(-2400 3.24)"/><path d="M3606.23,126.68c4.57-7.91.4-18.9-9.29-24.49-4.86-2.8-19.06-8.88-31.68-13.12-26.09-8.76-28.58-4.44-29.4-3s-3.31,5.74,17.32,24c10,8.81,22.34,18.07,27.2,20.88C3590.07,136.48,3601.67,134.59,3606.23,126.68Z" transform="translate(-2400 3.24)"/><path d="M3606.79,43.32c-4.57-7.91-16.17-9.8-25.86-4.2-4.86,2.8-17.22,12.07-27.2,20.88-20.63,18.22-18.14,22.54-17.32,24s3.31,5.74,29.4-3c12.62-4.24,26.82-10.31,31.68-13.12C3607.19,62.22,3611.36,51.23,3606.79,43.32Z" transform="translate(-2400 3.24)"/><path d="M3534.3-2.88a87.27,87.27,0,1,0,87.28,87.28A87.26,87.26,0,0,0,3534.3-2.88Zm0,170.43a83.15,83.15,0,1,1,83.15-83.15A83.18,83.18,0,0,1,3534.3,167.55Z" transform="translate(-2400 3.24)"/><rect x="1128.11" y="82.67" width="9.77" height="9.42"/><path d="M3363.7,183.39c-9.14,0-16.57,9.1-16.57,20.29,0,5.61,1.84,20.95,4.48,34,5.46,27,10.45,27,12.09,27s6.63,0,12.09-27c2.64-13,4.48-28.39,4.48-34C3380.27,192.49,3372.84,183.39,3363.7,183.39Z" transform="translate(-2400 3.24)"/><path d="M3291.24,224.59c-4.57,7.91-.4,18.9,9.29,24.49,4.86,2.8,19.06,8.88,31.68,13.11,26.09,8.76,28.58,4.44,29.4,3s3.31-5.74-17.32-24c-10-8.81-22.34-18.07-27.2-20.88C3307.4,214.79,3295.8,216.67,3291.24,224.59Z" transform="translate(-2400 3.24)"/><path d="M3290.68,307.94c4.57,7.91,16.17,9.8,25.86,4.2,4.86-2.8,17.22-12.07,27.2-20.88,20.63-18.22,18.14-22.54,17.32-24s-3.31-5.74-29.4,3c-12.62,4.24-26.82,10.31-31.68,13.12C3290.28,289,3286.11,300,3290.68,307.94Z" transform="translate(-2400 3.24)"/><path d="M3362.59,350.11c9.14,0,16.57-9.1,16.57-20.29,0-5.61-1.84-20.95-4.48-34-5.46-27-10.45-27-12.09-27s-6.63,0-12.09,27c-2.64,13-4.48,28.39-4.48,34C3346,341,3353.46,350.11,3362.59,350.11Z" transform="translate(-2400 3.24)"/><path d="M3435.06,308.91c4.57-7.91.4-18.9-9.29-24.49-4.86-2.8-19.06-8.88-31.68-13.12-26.09-8.76-28.58-4.44-29.4-3s-3.31,5.74,17.32,24c10,8.81,22.34,18.07,27.2,20.88C3418.89,318.7,3430.49,316.82,3435.06,308.91Z" transform="translate(-2400 3.24)"/><path d="M3435.62,225.55c-4.57-7.91-16.17-9.8-25.86-4.2-4.86,2.8-17.22,12.07-27.2,20.88-20.63,18.22-18.14,22.54-17.32,24s3.31,5.74,29.4-3c12.62-4.24,26.82-10.31,31.68-13.12C3436,244.45,3440.19,233.46,3435.62,225.55Z" transform="translate(-2400 3.24)"/><path d="M3363.13,179.35a87.27,87.27,0,1,0,87.28,87.28A87.26,87.26,0,0,0,3363.13,179.35Zm0,170.43a83.15,83.15,0,1,1,83.15-83.15A83.18,83.18,0,0,1,3363.13,349.78Z" transform="translate(-2400 3.24)"/><rect x="956.94" y="264.9" width="9.77" height="9.42"/><path d="M3531.8,180.23a86,86,0,1,0,86,86A86,86,0,0,0,3531.8,180.23Zm0,148.77a62.76,62.76,0,1,1,62.76-62.76A62.77,62.77,0,0,1,3531.8,329Z" transform="translate(-2400 3.24)"/><path d="M3532,204.47c-6.88,0-12.45,5.86-12.45,13.09S3531.37,266,3532,266s12.45-41.26,12.45-48.49S3538.93,204.47,3532,204.47Z" transform="translate(-2400 3.24)"/><path d="M3488.29,222.38c-4.86,4.86-4.66,12.95.45,18.06s42.61,26,43.09,25.48-20.37-38-25.48-43.09S3493.16,217.52,3488.29,222.38Z" transform="translate(-2400 3.24)"/><path d="M3470,266c0,6.88,5.86,12.45,13.09,12.45s48.49-11.77,48.49-12.45-41.26-12.45-48.49-12.45S3470,259.12,3470,266Z" transform="translate(-2400 3.24)"/><path d="M3487.94,309.75c4.86,4.86,12.95,4.66,18.06-.45s26-42.61,25.48-43.09-38,20.37-43.09,25.48S3483.07,304.89,3487.94,309.75Z" transform="translate(-2400 3.24)"/><path d="M3531.54,328c6.88,0,12.45-5.86,12.45-13.09s-11.77-48.49-12.45-48.49-12.45,41.26-12.45,48.49S3524.67,328,3531.54,328Z" transform="translate(-2400 3.24)"/><path d="M3575.3,310.1c4.86-4.86,4.66-12.95-.45-18.06s-42.61-26-43.09-25.48,20.37,38,25.48,43.09S3570.44,315,3575.3,310.1Z" transform="translate(-2400 3.24)"/><path d="M3593.57,266.5c0-6.88-5.86-12.45-13.09-12.45S3532,265.82,3532,266.5s41.26,12.45,48.49,12.45S3593.57,273.37,3593.57,266.5Z" transform="translate(-2400 3.24)"/><path d="M3575.66,222.74c-4.86-4.86-12.95-4.66-18.06.45s-26,42.61-25.48,43.09,38-20.37,43.09-25.48S3580.52,227.6,3575.66,222.74Z" transform="translate(-2400 3.24)"/><circle cx="1131.77" cy="269.51" r="11.35"/><rect x="1225.85" y="0.79" width="24.63" height="24.63"/><rect x="1373.65" y="0.79" width="24.63" height="24.63"/><polygon points="1299.23 48.5 1299.23 22.84 1273.57 22.84 1247.9 22.84 1247.9 48.5 1247.9 74.17 1273.57 74.17 1273.57 48.5 1299.23 48.5"/><polygon points="1350.56 74.17 1376.23 74.17 1376.23 48.5 1376.23 22.84 1350.56 22.84 1324.9 22.84 1324.9 48.5 1350.56 48.5 1350.56 74.17"/><polygon points="1324.9 74.17 1324.9 48.5 1299.23 48.5 1299.23 74.17 1273.57 74.17 1273.57 99.83 1299.23 99.83 1299.23 125.5 1324.9 125.5 1324.9 99.83 1350.56 99.83 1350.56 74.17 1324.9 74.17"/><polygon points="1273.57 99.83 1247.9 99.83 1247.9 125.5 1247.9 151.16 1273.57 151.16 1299.23 151.16 1299.23 125.5 1273.57 125.5 1273.57 99.83"/><polygon points="1324.9 125.5 1324.9 151.16 1350.56 151.16 1376.23 151.16 1376.23 125.5 1376.23 99.83 1350.56 99.83 1350.56 125.5 1324.9 125.5"/><rect x="1225.85" y="148.58" width="24.63" height="24.63"/><rect x="1373.65" y="148.58" width="24.63" height="24.63"/><polygon points="1622.27 27.2 1646.52 27.2 1646.52 2.04 1597.1 2.04 1597.1 51.45 1622.27 51.45 1622.27 27.2"/><polygon points="1700.64 51.45 1725.81 51.45 1725.81 2.04 1676.39 2.04 1676.39 27.2 1700.64 27.2 1700.64 51.45"/><rect x="1577.03" y="74.77" width="25.17" height="25.17"/><rect x="1722.5" y="74.77" width="25.17" height="25.17"/><polygon points="1674.93 124.18 1674.93 99.94 1699.18 99.94 1699.18 74.77 1674.93 74.77 1674.93 50.52 1649.76 50.52 1649.76 74.77 1625.52 74.77 1625.52 99.94 1649.76 99.94 1649.76 124.18 1674.93 124.18"/><polygon points="1622.87 123.26 1597.7 123.26 1597.7 172.67 1647.11 172.67 1647.11 147.5 1622.87 147.5 1622.87 123.26"/><polygon points="1700.64 147.5 1676.39 147.5 1676.39 172.67 1725.81 172.67 1725.81 123.26 1700.64 123.26 1700.64 147.5"/><path d="M3885.32-3.24a87.07,87.07,0,1,0,87.08,87.08A87.05,87.05,0,0,0,3885.32-3.24Zm63.51,75.43H3897V20.33A64.58,64.58,0,0,1,3948.82,72.19ZM3873.7,20.33V72.19h-51.86A64.58,64.58,0,0,1,3873.7,20.33Zm-51.87,75.13h51.87v51.87A64.58,64.58,0,0,1,3821.83,95.46ZM3897,147.32V95.46h51.86A64.58,64.58,0,0,1,3897,147.32Z" transform="translate(-2400 3.24)"/><polygon points="1445.1 209.43 1469.34 209.43 1469.34 184.26 1419.93 184.26 1419.93 233.68 1445.1 233.68 1445.1 209.43"/><polygon points="1523.46 233.68 1548.63 233.68 1548.63 184.26 1499.22 184.26 1499.22 209.43 1523.46 209.43 1523.46 233.68"/><rect x="1399.86" y="257" width="25.17" height="25.17"/><rect x="1545.33" y="257" width="25.17" height="25.17"/><polygon points="1497.76 306.41 1497.76 282.17 1522 282.17 1522 257 1497.76 257 1497.76 232.75 1472.59 232.75 1472.59 257 1448.35 257 1448.35 282.17 1472.59 282.17 1472.59 306.41 1497.76 306.41"/><polygon points="1445.69 305.49 1420.53 305.49 1420.53 354.9 1469.94 354.9 1469.94 329.73 1445.69 329.73 1445.69 305.49"/><polygon points="1523.46 329.73 1499.22 329.73 1499.22 354.9 1548.63 354.9 1548.63 305.49 1523.46 305.49 1523.46 329.73"/><polygon points="1600.36 232.77 1600.36 208.35 1624.78 208.35 1649.21 208.35 1649.21 183.92 1624.78 183.92 1600.36 183.92 1575.93 183.92 1575.93 208.35 1575.93 232.77 1575.93 257.2 1600.36 257.2 1600.36 232.77"/><polygon points="1722.49 183.92 1698.06 183.92 1673.63 183.92 1673.63 208.35 1698.06 208.35 1722.49 208.35 1722.49 232.77 1722.49 257.2 1746.91 257.2 1746.91 232.77 1746.91 208.35 1746.91 183.92 1722.49 183.92"/><polygon points="1673.63 306.05 1673.63 281.63 1698.06 281.63 1698.06 257.2 1673.63 257.2 1673.63 232.77 1649.21 232.77 1649.21 257.2 1624.78 257.2 1624.78 281.63 1649.21 281.63 1649.21 306.05 1673.63 306.05"/><polygon points="1600.36 330.48 1600.36 306.05 1600.36 281.63 1575.93 281.63 1575.93 306.05 1575.93 330.48 1575.93 354.9 1600.36 354.9 1624.78 354.9 1649.21 354.9 1649.21 330.48 1624.78 330.48 1600.36 330.48"/><polygon points="1722.49 306.05 1722.49 330.48 1698.06 330.48 1673.63 330.48 1673.63 354.9 1698.06 354.9 1722.49 354.9 1746.91 354.9 1746.91 330.48 1746.91 306.05 1746.91 281.63 1722.49 281.63 1722.49 306.05"/><path d="M3712.64,179a87.07,87.07,0,1,0,87.08,87.08A87.05,87.05,0,0,0,3712.64,179Zm63.51,75.43H3724.3V202.56A64.58,64.58,0,0,1,3776.15,254.42ZM3701,202.56v51.86h-51.86A64.58,64.58,0,0,1,3701,202.56Zm-51.87,75.13H3701v51.87A64.58,64.58,0,0,1,3649.16,277.69Zm75.14,51.86V277.69h51.86A64.58,64.58,0,0,1,3724.3,329.55Z" transform="translate(-2400 3.24)"/><polygon points="1769.01 50.54 1769.01 26.12 1793.44 26.12 1817.86 26.12 1817.86 1.69 1793.44 1.69 1769.01 1.69 1744.59 1.69 1744.59 26.12 1744.59 50.54 1744.59 74.97 1769.01 74.97 1769.01 50.54"/><polygon points="1891.14 1.69 1866.72 1.69 1842.29 1.69 1842.29 26.12 1866.72 26.12 1891.14 26.12 1891.14 50.54 1891.14 74.97 1915.57 74.97 1915.57 50.54 1915.57 26.12 1915.57 1.69 1891.14 1.69"/><polygon points="1842.29 123.82 1842.29 99.39 1866.72 99.39 1866.72 74.97 1842.29 74.97 1842.29 50.54 1817.86 50.54 1817.86 74.97 1793.44 74.97 1793.44 99.39 1817.86 99.39 1817.86 123.82 1842.29 123.82"/><polygon points="1769.01 148.25 1769.01 123.82 1769.01 99.39 1744.59 99.39 1744.59 123.82 1744.59 148.25 1744.59 172.67 1769.01 172.67 1793.44 172.67 1817.86 172.67 1817.86 148.25 1793.44 148.25 1769.01 148.25"/><polygon points="1891.14 123.82 1891.14 148.25 1866.72 148.25 1842.29 148.25 1842.29 172.67 1866.72 172.67 1891.14 172.67 1915.57 172.67 1915.57 148.25 1915.57 123.82 1915.57 99.39 1891.14 99.39 1891.14 123.82"/><path d="M4233.44,183.39c-9.14,0-16.57,9.1-16.57,20.29,0,5.61,1.84,20.95,4.48,34,5.46,27,10.45,27,12.09,27s6.63,0,12.09-27c2.64-13,4.48-28.39,4.48-34C4250,192.49,4242.58,183.39,4233.44,183.39Z" transform="translate(-2400 3.24)"/><path d="M4161,224.59c-4.57,7.91-.4,18.9,9.29,24.49,4.86,2.8,19.06,8.88,31.68,13.11,26.09,8.76,28.58,4.44,29.4,3s3.31-5.74-17.32-24c-10-8.81-22.34-18.07-27.2-20.88C4177.14,214.79,4165.54,216.67,4161,224.59Z" transform="translate(-2400 3.24)"/><path d="M4160.42,307.94c4.57,7.91,16.17,9.8,25.86,4.2,4.86-2.8,17.22-12.07,27.2-20.88,20.63-18.22,18.14-22.54,17.32-24s-3.31-5.74-29.4,3c-12.62,4.24-26.82,10.31-31.68,13.12C4160,289,4155.85,300,4160.42,307.94Z" transform="translate(-2400 3.24)"/><path d="M4232.33,350.11c9.14,0,16.57-9.1,16.57-20.29,0-5.61-1.84-20.95-4.48-34-5.46-27-10.45-27-12.09-27s-6.63,0-12.09,27c-2.64,13-4.48,28.39-4.48,34C4215.76,341,4223.19,350.11,4232.33,350.11Z" transform="translate(-2400 3.24)"/><path d="M4304.8,308.91c4.57-7.91.4-18.9-9.29-24.49-4.86-2.8-19.06-8.88-31.68-13.12-26.09-8.76-28.58-4.44-29.4-3s-3.31,5.74,17.32,24c10,8.81,22.34,18.07,27.2,20.88C4288.63,318.7,4300.23,316.82,4304.8,308.91Z" transform="translate(-2400 3.24)"/><path d="M4305.35,225.55c-4.57-7.91-16.17-9.8-25.86-4.2-4.86,2.8-17.22,12.07-27.2,20.88-20.63,18.22-18.14,22.54-17.32,24s3.31,5.74,29.4-3c12.62-4.24,26.82-10.31,31.68-13.12C4305.75,244.45,4309.92,233.46,4305.35,225.55Z" transform="translate(-2400 3.24)"/><path d="M4232.87,179.35a87.27,87.27,0,1,0,87.28,87.28A87.26,87.26,0,0,0,4232.87,179.35Zm0,170.43A83.15,83.15,0,1,1,4316,266.63,83.18,83.18,0,0,1,4232.87,349.78Z" transform="translate(-2400 3.24)"/><rect x="1826.67" y="264.9" width="9.77" height="9.42"/><path d="M2490.11,367c-9.14,0-16.57,9.1-16.57,20.29,0,5.61,1.84,20.95,4.48,34,5.46,27,10.45,27,12.09,27s6.63,0,12.09-27c2.64-13,4.48-28.39,4.48-34C2506.68,376.06,2499.25,367,2490.11,367Z" transform="translate(-2400 3.24)"/><path d="M2417.65,408.15c-4.57,7.91-.4,18.9,9.29,24.49,4.86,2.8,19.06,8.88,31.68,13.12,26.09,8.76,28.58,4.44,29.4,3s3.31-5.74-17.32-24c-10-8.81-22.34-18.07-27.2-20.88C2433.81,398.35,2422.22,400.24,2417.65,408.15Z" transform="translate(-2400 3.24)"/><path d="M2417.09,491.51c4.57,7.91,16.17,9.8,25.86,4.2,4.86-2.8,17.22-12.07,27.2-20.88,20.63-18.22,18.14-22.54,17.32-24s-3.31-5.74-29.4,3c-12.62,4.24-26.82,10.31-31.68,13.12C2416.69,472.61,2412.52,483.6,2417.09,491.51Z" transform="translate(-2400 3.24)"/><path d="M2489,533.67c9.14,0,16.57-9.1,16.57-20.29,0-5.61-1.84-20.95-4.48-34-5.46-27-10.45-27-12.09-27s-6.63,0-12.09,27c-2.64,13-4.48,28.39-4.48,34C2472.44,524.57,2479.87,533.67,2489,533.67Z" transform="translate(-2400 3.24)"/><path d="M2561.47,492.47c4.57-7.91.4-18.9-9.29-24.49-4.86-2.8-19.06-8.88-31.68-13.12-26.09-8.76-28.58-4.44-29.4-3s-3.31,5.74,17.32,24c10,8.81,22.34,18.07,27.2,20.88C2545.31,502.27,2556.9,500.39,2561.47,492.47Z" transform="translate(-2400 3.24)"/><path d="M2562,409.11c-4.57-7.91-16.17-9.8-25.86-4.2-4.86,2.8-17.22,12.07-27.2,20.88-20.63,18.22-18.14,22.54-17.32,24s3.31,5.74,29.4-3c12.62-4.24,26.82-10.31,31.68-13.12C2562.43,428,2566.6,417,2562,409.11Z" transform="translate(-2400 3.24)"/><path d="M2489.54,362.92a87.27,87.27,0,1,0,87.28,87.28A87.26,87.26,0,0,0,2489.54,362.92Zm0,170.43a83.15,83.15,0,1,1,83.15-83.15A83.18,83.18,0,0,1,2489.54,533.35Z" transform="translate(-2400 3.24)"/><rect x="83.35" y="448.47" width="9.77" height="9.42"/><path d="M2658.21,363.8a86,86,0,1,0,86,86A86,86,0,0,0,2658.21,363.8Zm0,148.77A62.76,62.76,0,1,1,2721,449.81,62.77,62.77,0,0,1,2658.21,512.57Z" transform="translate(-2400 3.24)"/><path d="M2658.46,388c-6.88,0-12.45,5.86-12.45,13.09s11.77,48.49,12.45,48.49,12.45-41.26,12.45-48.49S2665.34,388,2658.46,388Z" transform="translate(-2400 3.24)"/><path d="M2614.7,406c-4.86,4.86-4.66,12.95.45,18.06s42.61,26,43.09,25.48-20.37-38-25.48-43.09S2619.57,401.09,2614.7,406Z" transform="translate(-2400 3.24)"/><path d="M2596.43,449.56c0,6.88,5.86,12.45,13.09,12.45S2658,450.24,2658,449.56s-41.26-12.45-48.49-12.45S2596.43,442.68,2596.43,449.56Z" transform="translate(-2400 3.24)"/><path d="M2614.35,493.31c4.86,4.86,12.95,4.66,18.06-.45s26-42.61,25.48-43.09-38,20.37-43.09,25.48S2609.48,488.45,2614.35,493.31Z" transform="translate(-2400 3.24)"/><path d="M2658,511.59c6.88,0,12.45-5.86,12.45-13.09S2658.63,450,2658,450s-12.45,41.26-12.45,48.49S2651.08,511.59,2658,511.59Z" transform="translate(-2400 3.24)"/><path d="M2701.71,493.67c4.86-4.86,4.66-12.95-.45-18.06s-42.61-26-43.09-25.48,20.37,38,25.48,43.09S2696.85,498.53,2701.71,493.67Z" transform="translate(-2400 3.24)"/><path d="M2720,450.06c0-6.88-5.86-12.45-13.09-12.45s-48.49,11.77-48.49,12.45,41.26,12.45,48.49,12.45S2720,456.94,2720,450.06Z" transform="translate(-2400 3.24)"/><path d="M2702.07,406.31c-4.86-4.86-12.95-4.66-18.06.45s-26,42.61-25.48,43.09,38-20.37,43.09-25.48S2706.93,411.17,2702.07,406.31Z" transform="translate(-2400 3.24)"/><circle cx="258.18" cy="453.08" r="11.35"/><polygon points="220.15 578.49 244.39 578.49 244.39 553.33 194.98 553.33 194.98 602.74 220.15 602.74 220.15 578.49"/><polygon points="298.51 602.74 323.68 602.74 323.68 553.33 274.27 553.33 274.27 578.49 298.51 578.49 298.51 602.74"/><rect x="174.9" y="626.06" width="25.17" height="25.17"/><rect x="320.37" y="626.06" width="25.17" height="25.17"/><polygon points="272.81 675.47 272.81 651.23 297.05 651.23 297.05 626.06 272.81 626.06 272.81 601.82 247.64 601.82 247.64 626.06 223.4 626.06 223.4 651.23 247.64 651.23 247.64 675.47 272.81 675.47"/><polygon points="220.74 674.55 195.57 674.55 195.57 723.96 244.99 723.96 244.99 698.79 220.74 698.79 220.74 674.55"/><polygon points="298.51 698.79 274.27 698.79 274.27 723.96 323.68 723.96 323.68 674.55 298.51 674.55 298.51 698.79"/><path d="M2489.19,548.05a87.07,87.07,0,1,0,87.08,87.08A87.05,87.05,0,0,0,2489.19,548.05Zm63.51,75.43h-51.85V571.62A64.58,64.58,0,0,1,2552.7,623.48Zm-75.12-51.86v51.86h-51.86A64.58,64.58,0,0,1,2477.57,571.62Zm-51.87,75.13h51.87v51.87A64.58,64.58,0,0,1,2425.71,646.75Zm75.14,51.86V646.75h51.86A64.58,64.58,0,0,1,2500.84,698.61Z" transform="translate(-2400 3.24)"/><path d="M2829.7,554.83c-9.14,0-16.57,9.1-16.57,20.29,0,5.61,1.84,20.95,4.48,34,5.46,27,10.45,27,12.09,27s6.63,0,12.09-27c2.64-13,4.48-28.39,4.48-34C2846.27,563.93,2838.83,554.83,2829.7,554.83Z" transform="translate(-2400 3.24)"/><path d="M2757.23,596c-4.57,7.91-.4,18.9,9.29,24.49,4.86,2.8,19.06,8.88,31.68,13.12,26.09,8.76,28.58,4.44,29.4,3s3.31-5.74-17.32-24c-10-8.81-22.34-18.07-27.2-20.88C2773.4,586.23,2761.8,588.12,2757.23,596Z" transform="translate(-2400 3.24)"/><path d="M2756.67,679.39c4.57,7.91,16.17,9.8,25.86,4.2,4.86-2.8,17.22-12.07,27.2-20.88,20.63-18.22,18.14-22.54,17.32-24s-3.31-5.74-29.4,3C2785,646,2770.82,652.09,2766,654.9,2756.27,660.49,2752.11,671.48,2756.67,679.39Z" transform="translate(-2400 3.24)"/><path d="M2828.59,721.55c9.14,0,16.57-9.1,16.57-20.29,0-5.61-1.84-20.95-4.48-34-5.46-27-10.45-27-12.09-27s-6.63,0-12.09,27c-2.64,13-4.48,28.39-4.48,34C2812,712.45,2819.45,721.55,2828.59,721.55Z" transform="translate(-2400 3.24)"/><path d="M2901.05,680.35c4.57-7.91.4-18.9-9.29-24.49-4.86-2.8-19.06-8.88-31.68-13.12-26.09-8.76-28.58-4.44-29.4-3s-3.31,5.74,17.32,24c10,8.81,22.34,18.07,27.2,20.88C2884.89,690.15,2896.49,688.26,2901.05,680.35Z" transform="translate(-2400 3.24)"/><path d="M2901.61,597c-4.57-7.91-16.17-9.8-25.86-4.2-4.86,2.8-17.22,12.07-27.2,20.88-20.63,18.22-18.14,22.54-17.32,24s3.31,5.74,29.4-3c12.62-4.24,26.82-10.31,31.68-13.12C2902,615.89,2906.18,604.91,2901.61,597Z" transform="translate(-2400 3.24)"/><path d="M2829.12,550.8a87.27,87.27,0,1,0,87.28,87.28A87.26,87.26,0,0,0,2829.12,550.8Zm0,170.43a83.15,83.15,0,1,1,83.15-83.15A83.18,83.18,0,0,1,2829.12,721.22Z" transform="translate(-2400 3.24)"/><rect x="422.93" y="636.34" width="9.77" height="9.42"/><polygon points="562.51 393 586.75 393 586.75 367.83 537.34 367.83 537.34 417.24 562.51 417.24 562.51 393"/><polygon points="640.88 417.24 666.04 417.24 666.04 367.83 616.63 367.83 616.63 393 640.88 393 640.88 417.24"/><rect x="517.27" y="440.57" width="25.17" height="25.17"/><rect x="662.74" y="440.57" width="25.17" height="25.17"/><polygon points="615.17 489.98 615.17 465.73 639.41 465.73 639.41 440.56 615.17 440.56 615.17 416.32 590 416.32 590 440.56 565.76 440.56 565.76 465.73 590 465.73 590 489.98 615.17 489.98"/><polygon points="563.11 489.06 537.94 489.06 537.94 538.47 587.35 538.47 587.35 513.3 563.11 513.3 563.11 489.06"/><polygon points="640.88 513.3 616.63 513.3 616.63 538.47 666.04 538.47 666.04 489.06 640.88 489.06 640.88 513.3"/><path d="M2831.55,362.56a87.07,87.07,0,1,0,87.08,87.08A87.05,87.05,0,0,0,2831.55,362.56ZM2895.06,438h-51.85V386.13A64.58,64.58,0,0,1,2895.06,438Zm-75.12-51.86V438h-51.86A64.58,64.58,0,0,1,2819.94,386.12Zm-51.87,75.13h51.87v51.87A64.58,64.58,0,0,1,2768.07,461.26Zm75.14,51.86V461.26h51.86A64.58,64.58,0,0,1,2843.21,513.12Z" transform="translate(-2400 3.24)"/><path d="M3089,623.91a86.09,86.09,0,0,0-6.64-23.56c-0.41-.94-0.86-1.85-1.27-2.76a86.83,86.83,0,0,0-38.9-39.45c-0.91-.47-1.82-0.91-2.76-1.33a85,85,0,0,0-24.33-7.11,88,88,0,0,0-11.83-.8,87.09,87.09,0,0,0-35.33,7.52c-0.94.41-1.85,0.86-2.76,1.33a86.7,86.7,0,0,0-39.68,39.84c-0.44.91-.88,1.82-1.3,2.76a86.08,86.08,0,0,0-6.64,23.56,87.25,87.25,0,0,0-.75,11.47,82.87,82.87,0,0,0,.86,12.08,85.44,85.44,0,0,0,7.19,24.39c0.44,0.94.88,1.85,1.35,2.76a86.82,86.82,0,0,0,39,38.4c0.91,0.44,1.82.88,2.76,1.3a87.08,87.08,0,0,0,35.33,7.52,88,88,0,0,0,11.83-.8,85,85,0,0,0,24.33-7.11c0.94-.41,1.85-0.86,2.76-1.33a87,87,0,0,0,38.18-38c0.44-.91.88-1.82,1.33-2.76a85.88,85.88,0,0,0,8-36.47A87.27,87.27,0,0,0,3089,623.91Zm-12.52-26.32h-34.19l2.32-.92a15.67,15.67,0,0,0,7-5.48l9.74-13.68,0.1-.1-0.06,0,0-.06-0.1.1-13.68,9.73a15.67,15.67,0,0,0-5.44,6.9V562.78A82.44,82.44,0,0,1,3076.52,597.59Zm-37-36.25v39h38.4a79.88,79.88,0,0,1,7,23.56h-69.76V553.85A81.19,81.19,0,0,1,3039.47,561.34Zm-74.26,1V596.6l-0.95-2.39a15.67,15.67,0,0,0-5.48-7l-13.68-9.73-0.09-.1,0,0.06-0.06,0,0.09,0.1,9.74,13.68a15.67,15.67,0,0,0,7,5.48l2.32,0.92h-34A82.11,82.11,0,0,1,2965.21,562.33Zm-36.47,38H2968V561a81.49,81.49,0,0,1,23.61-7.13v70.09h-69.87A81.56,81.56,0,0,1,2928.74,600.35Zm2.1,74.26h30.59a15.66,15.66,0,0,0-6.6,5.29l-9.74,13.68,0,0A82.91,82.91,0,0,1,2930.84,674.62Zm14.22,19,0,0,13.68-9.73a15.68,15.68,0,0,0,5.48-7l0.9-2.27h0v33.81A83.12,83.12,0,0,1,2945.06,693.64ZM2968,709.81v-38h-38.54a81.2,81.2,0,0,1-7.63-24.39h69.78v69.48A81.49,81.49,0,0,1,2968,709.81Zm74.26-1.82V677a15.67,15.67,0,0,0,5.44,6.9l13.68,9.73,0.1,0.1,0-.06,0.06,0-0.1-.1-9.74-13.68a15.66,15.66,0,0,0-6.6-5.29h30.77A83,83,0,0,1,3042.24,708Zm34.95-36.14h-37.71v37.57a81.19,81.19,0,0,1-24.33,7.49V647.46h69.67A81.2,81.2,0,0,1,3077.18,671.85Z" transform="translate(-2400 3.24)"/><path d="M3362.85,367c-9.14,0-16.57,9.1-16.57,20.29,0,5.61,1.84,20.95,4.48,34,5.46,27,10.45,27,12.09,27s6.63,0,12.09-27c2.64-13,4.48-28.39,4.48-34C3379.42,376.06,3372,367,3362.85,367Z" transform="translate(-2400 3.24)"/><path d="M3290.38,408.15c-4.57,7.91-.4,18.9,9.29,24.49,4.86,2.8,19.06,8.88,31.68,13.12,26.09,8.76,28.58,4.44,29.4,3s3.31-5.74-17.32-24c-10-8.81-22.34-18.07-27.2-20.88C3306.55,398.35,3295,400.24,3290.38,408.15Z" transform="translate(-2400 3.24)"/><path d="M3289.83,491.51c4.57,7.91,16.17,9.8,25.86,4.2,4.86-2.8,17.22-12.07,27.2-20.88,20.63-18.22,18.14-22.54,17.32-24s-3.31-5.74-29.4,3c-12.62,4.24-26.82,10.31-31.68,13.12C3289.42,472.61,3285.26,483.6,3289.83,491.51Z" transform="translate(-2400 3.24)"/><path d="M3361.74,533.67c9.14,0,16.57-9.1,16.57-20.29,0-5.61-1.84-20.95-4.48-34-5.46-27-10.45-27-12.09-27s-6.63,0-12.09,27c-2.64,13-4.48,28.39-4.48,34C3345.17,524.57,3352.6,533.67,3361.74,533.67Z" transform="translate(-2400 3.24)"/><path d="M3434.21,492.47c4.57-7.91.4-18.9-9.29-24.49-4.86-2.8-19.06-8.88-31.68-13.12-26.09-8.76-28.58-4.44-29.4-3s-3.31,5.74,17.32,24c10,8.81,22.34,18.07,27.2,20.88C3418,502.27,3429.64,500.39,3434.21,492.47Z" transform="translate(-2400 3.24)"/><path d="M3434.76,409.11c-4.57-7.91-16.17-9.8-25.86-4.2-4.86,2.8-17.22,12.07-27.2,20.88-20.63,18.22-18.14,22.54-17.32,24s3.31,5.74,29.4-3c12.62-4.24,26.82-10.31,31.68-13.12C3435.16,428,3439.33,417,3434.76,409.11Z" transform="translate(-2400 3.24)"/><path d="M3362.28,362.92a87.27,87.27,0,1,0,87.28,87.28A87.26,87.26,0,0,0,3362.28,362.92Zm0,170.43a83.15,83.15,0,1,1,83.15-83.15A83.18,83.18,0,0,1,3362.28,533.35Z" transform="translate(-2400 3.24)"/><rect x="956.08" y="448.47" width="9.77" height="9.42"/><path d="M3530.94,363.8a86,86,0,1,0,86,86A86,86,0,0,0,3530.94,363.8Zm0,148.77a62.76,62.76,0,1,1,62.76-62.76A62.77,62.77,0,0,1,3530.94,512.57Z" transform="translate(-2400 3.24)"/><path d="M3531.19,388c-6.88,0-12.45,5.86-12.45,13.09s11.77,48.49,12.45,48.49,12.45-41.26,12.45-48.49S3538.07,388,3531.19,388Z" transform="translate(-2400 3.24)"/><path d="M3487.44,406c-4.86,4.86-4.66,12.95.45,18.06s42.61,26,43.09,25.48-20.37-38-25.48-43.09S3492.3,401.09,3487.44,406Z" transform="translate(-2400 3.24)"/><path d="M3469.17,449.56c0,6.88,5.86,12.45,13.09,12.45s48.49-11.77,48.49-12.45-41.26-12.45-48.49-12.45S3469.17,442.68,3469.17,449.56Z" transform="translate(-2400 3.24)"/><path d="M3487.08,493.31c4.86,4.86,12.95,4.66,18.06-.45s26-42.61,25.48-43.09-38,20.37-43.09,25.48S3482.22,488.45,3487.08,493.31Z" transform="translate(-2400 3.24)"/><path d="M3530.69,511.59c6.88,0,12.45-5.86,12.45-13.09S3531.37,450,3530.69,450s-12.45,41.26-12.45,48.49S3523.81,511.59,3530.69,511.59Z" transform="translate(-2400 3.24)"/><path d="M3574.45,493.67c4.86-4.86,4.66-12.95-.45-18.06s-42.61-26-43.09-25.48,20.37,38,25.48,43.09S3569.58,498.53,3574.45,493.67Z" transform="translate(-2400 3.24)"/><path d="M3592.72,450.06c0-6.88-5.86-12.45-13.09-12.45s-48.49,11.77-48.49,12.45,41.26,12.45,48.49,12.45S3592.72,456.94,3592.72,450.06Z" transform="translate(-2400 3.24)"/><path d="M3574.8,406.31c-4.86-4.86-12.95-4.66-18.06.45s-26,42.61-25.48,43.09,38-20.37,43.09-25.48S3579.66,411.17,3574.8,406.31Z" transform="translate(-2400 3.24)"/><circle cx="1130.91" cy="453.08" r="11.35"/><polygon points="1444.24 393 1468.49 393 1468.49 367.83 1419.08 367.83 1419.08 417.24 1444.24 417.24 1444.24 393"/><polygon points="1522.61 417.24 1547.78 417.24 1547.78 367.83 1498.37 367.83 1498.37 393 1522.61 393 1522.61 417.24"/><rect x="1399" y="440.57" width="25.17" height="25.17"/><rect x="1544.47" y="440.57" width="25.17" height="25.17"/><polygon points="1496.9 489.98 1496.9 465.73 1521.15 465.73 1521.15 440.56 1496.9 440.56 1496.9 416.32 1471.74 416.32 1471.74 440.56 1447.49 440.56 1447.49 465.73 1471.74 465.73 1471.74 489.98 1496.9 489.98"/><polygon points="1444.84 489.06 1419.67 489.06 1419.67 538.47 1469.08 538.47 1469.08 513.3 1444.84 513.3 1444.84 489.06"/><polygon points="1522.61 513.3 1498.37 513.3 1498.37 538.47 1547.78 538.47 1547.78 489.06 1522.61 489.06 1522.61 513.3"/><polygon points="1599.5 416.34 1599.5 391.91 1623.93 391.91 1648.36 391.91 1648.36 367.49 1623.93 367.49 1599.5 367.49 1575.08 367.49 1575.08 391.91 1575.08 416.34 1575.08 440.76 1599.5 440.76 1599.5 416.34"/><polygon points="1721.63 367.49 1697.21 367.49 1672.78 367.49 1672.78 391.91 1697.21 391.91 1721.63 391.91 1721.63 416.34 1721.63 440.76 1746.06 440.76 1746.06 416.34 1746.06 391.91 1746.06 367.49 1721.63 367.49"/><polygon points="1672.78 489.62 1672.78 465.19 1697.21 465.19 1697.21 440.76 1672.78 440.76 1672.78 416.34 1648.36 416.34 1648.36 440.76 1623.93 440.76 1623.93 465.19 1648.36 465.19 1648.36 489.62 1672.78 489.62"/><polygon points="1599.5 514.04 1599.5 489.62 1599.5 465.19 1575.08 465.19 1575.08 489.62 1575.08 514.04 1575.08 538.47 1599.5 538.47 1623.93 538.47 1648.36 538.47 1648.36 514.04 1623.93 514.04 1599.5 514.04"/><polygon points="1721.63 489.62 1721.63 514.04 1697.21 514.04 1672.78 514.04 1672.78 538.47 1697.21 538.47 1721.63 538.47 1746.06 538.47 1746.06 514.04 1746.06 489.62 1746.06 465.19 1721.63 465.19 1721.63 489.62"/><path d="M3711.79,362.56a87.07,87.07,0,1,0,87.08,87.08A87.05,87.05,0,0,0,3711.79,362.56ZM3775.3,438h-51.85V386.13A64.58,64.58,0,0,1,3775.3,438Zm-75.12-51.86V438h-51.86A64.58,64.58,0,0,1,3700.17,386.12Zm-51.87,75.13h51.87v51.87A64.58,64.58,0,0,1,3648.3,461.26Zm75.14,51.86V461.26h51.86A64.58,64.58,0,0,1,3723.44,513.12Z" transform="translate(-2400 3.24)"/><rect x="1576.22" y="552.08" width="24.63" height="24.63"/><rect x="1724.01" y="552.08" width="24.63" height="24.63"/><polygon points="1649.6 599.79 1649.6 574.13 1623.93 574.13 1598.27 574.13 1598.27 599.79 1598.27 625.46 1623.93 625.46 1623.93 599.79 1649.6 599.79"/><polygon points="1700.93 625.46 1726.59 625.46 1726.59 599.79 1726.59 574.13 1700.93 574.13 1675.26 574.13 1675.26 599.79 1700.93 599.79 1700.93 625.46"/><polygon points="1675.26 625.46 1675.26 599.79 1649.6 599.79 1649.6 625.46 1623.93 625.46 1623.93 651.12 1649.6 651.12 1649.6 676.79 1675.26 676.79 1675.26 651.12 1700.93 651.12 1700.93 625.46 1675.26 625.46"/><polygon points="1623.93 651.12 1598.27 651.12 1598.27 676.79 1598.27 702.45 1623.93 702.45 1649.6 702.45 1649.6 676.79 1623.93 676.79 1623.93 651.12"/><polygon points="1675.26 676.79 1675.26 702.45 1700.93 702.45 1726.59 702.45 1726.59 676.79 1726.59 651.12 1700.93 651.12 1700.93 676.79 1675.26 676.79"/><rect x="1576.22" y="699.87" width="24.63" height="24.63"/><rect x="1724.01" y="699.87" width="24.63" height="24.63"/><path d="M3970.78,623.91a86.09,86.09,0,0,0-6.64-23.56c-0.41-.94-0.86-1.85-1.27-2.76a86.83,86.83,0,0,0-38.9-39.45c-0.91-.47-1.82-0.91-2.76-1.33a85,85,0,0,0-24.33-7.11,88,88,0,0,0-11.83-.8,87.09,87.09,0,0,0-35.33,7.52c-0.94.41-1.85,0.86-2.76,1.33a86.7,86.7,0,0,0-39.68,39.84c-0.44.91-.88,1.82-1.3,2.76a86.09,86.09,0,0,0-6.64,23.56,87.27,87.27,0,0,0-.75,11.47,82.86,82.86,0,0,0,.86,12.08,85.44,85.44,0,0,0,7.19,24.39c0.44,0.94.88,1.85,1.35,2.76a86.82,86.82,0,0,0,39,38.4c0.91,0.44,1.82.88,2.76,1.3a87.08,87.08,0,0,0,35.33,7.52,88,88,0,0,0,11.83-.8,85,85,0,0,0,24.33-7.11c0.94-.41,1.85-0.86,2.76-1.33a87,87,0,0,0,38.18-38c0.44-.91.88-1.82,1.33-2.76a85.88,85.88,0,0,0,8-36.47A87.25,87.25,0,0,0,3970.78,623.91Zm-12.52-26.32h-34.19l2.32-.92a15.67,15.67,0,0,0,7-5.48l9.74-13.68,0.1-.1-0.06,0,0-.06-0.1.1-13.68,9.73a15.67,15.67,0,0,0-5.44,6.9V562.78A82.44,82.44,0,0,1,3958.26,597.59Zm-37-36.25v39h38.4a79.87,79.87,0,0,1,7,23.56h-69.76V553.85A81.19,81.19,0,0,1,3921.21,561.34Zm-74.26,1V596.6l-0.95-2.39a15.68,15.68,0,0,0-5.48-7l-13.68-9.73-0.1-.1,0,0.06-0.06,0,0.09,0.1,9.74,13.68a15.67,15.67,0,0,0,7,5.48l2.32,0.92h-34A82.11,82.11,0,0,1,3846.94,562.33Zm-36.47,38h39.23V561a81.49,81.49,0,0,1,23.61-7.13v70.09h-69.87A81.55,81.55,0,0,1,3810.47,600.35Zm2.1,74.26h30.59a15.66,15.66,0,0,0-6.6,5.29l-9.74,13.68,0,0A82.91,82.91,0,0,1,3812.58,674.62Zm14.22,19,0,0,13.68-9.73a15.68,15.68,0,0,0,5.48-7l0.9-2.27h0v33.81A83.13,83.13,0,0,1,3826.8,693.64Zm22.91,16.17v-38h-38.54a81.2,81.2,0,0,1-7.63-24.39h69.78v69.48A81.49,81.49,0,0,1,3849.71,709.81ZM3924,708V677a15.67,15.67,0,0,0,5.44,6.9l13.68,9.73,0.1,0.1,0-.06,0.06,0-0.1-.1-9.74-13.68a15.66,15.66,0,0,0-6.6-5.29h30.77A83,83,0,0,1,3924,708Zm34.95-36.14h-37.71v37.57a81.19,81.19,0,0,1-24.33,7.49V647.46h69.67A81.2,81.2,0,0,1,3958.92,671.85Z" transform="translate(-2400 3.24)"/><path d="M4232.58,367c-9.14,0-16.57,9.1-16.57,20.29,0,5.61,1.84,20.95,4.48,34,5.46,27,10.45,27,12.09,27s6.63,0,12.09-27c2.64-13,4.48-28.39,4.48-34C4249.15,376.06,4241.72,367,4232.58,367Z" transform="translate(-2400 3.24)"/><path d="M4160.12,408.15c-4.57,7.91-.4,18.9,9.29,24.49,4.86,2.8,19.06,8.88,31.68,13.12,26.09,8.76,28.58,4.44,29.4,3s3.31-5.74-17.32-24c-10-8.81-22.34-18.07-27.2-20.88C4176.28,398.35,4164.69,400.24,4160.12,408.15Z" transform="translate(-2400 3.24)"/><path d="M4159.56,491.51c4.57,7.91,16.17,9.8,25.86,4.2,4.86-2.8,17.22-12.07,27.2-20.88,20.63-18.22,18.14-22.54,17.32-24s-3.31-5.74-29.4,3c-12.62,4.24-26.82,10.31-31.68,13.12C4159.16,472.61,4155,483.6,4159.56,491.51Z" transform="translate(-2400 3.24)"/><path d="M4231.47,533.67c9.14,0,16.57-9.1,16.57-20.29,0-5.61-1.84-20.95-4.48-34-5.46-27-10.45-27-12.09-27s-6.63,0-12.09,27c-2.64,13-4.48,28.39-4.48,34C4214.91,524.57,4222.34,533.67,4231.47,533.67Z" transform="translate(-2400 3.24)"/><path d="M4303.94,492.47c4.57-7.91.4-18.9-9.29-24.49-4.86-2.8-19.06-8.88-31.68-13.12-26.09-8.76-28.58-4.44-29.4-3s-3.31,5.74,17.32,24c10,8.81,22.34,18.07,27.2,20.88C4287.78,502.27,4299.37,500.39,4303.94,492.47Z" transform="translate(-2400 3.24)"/><path d="M4304.5,409.11c-4.57-7.91-16.17-9.8-25.86-4.2-4.86,2.8-17.22,12.07-27.2,20.88-20.63,18.22-18.14,22.54-17.32,24s3.31,5.74,29.4-3c12.62-4.24,26.82-10.31,31.68-13.12C4304.9,428,4309.07,417,4304.5,409.11Z" transform="translate(-2400 3.24)"/><path d="M4232,362.92a87.27,87.27,0,1,0,87.28,87.28A87.26,87.26,0,0,0,4232,362.92Zm0,170.43a83.15,83.15,0,1,1,83.15-83.15A83.18,83.18,0,0,1,4232,533.35Z" transform="translate(-2400 3.24)"/><rect x="1825.82" y="448.47" width="9.77" height="9.42"/><path d="M4231.66,548.05a87.07,87.07,0,1,0,87.08,87.08A87.05,87.05,0,0,0,4231.66,548.05Zm63.51,75.43h-51.85V571.62A64.58,64.58,0,0,1,4295.17,623.48ZM4220,571.62v51.86h-51.86A64.58,64.58,0,0,1,4220,571.62Zm-51.87,75.13H4220v51.87A64.58,64.58,0,0,1,4168.18,646.75Zm75.14,51.86V646.75h51.86A64.58,64.58,0,0,1,4243.31,698.61Z" transform="translate(-2400 3.24)"/><path d="M3262.76,607.59V501h-23.9v0H3215V287h-23.9v80.62l-23.55,13.59V287h-71.3v4h0v30.49l23.9-13.76V296.58a5.6,5.6,0,0,1,5.6-5.6H3138a5.6,5.6,0,0,1,5.6,5.6v70.21l-47.25,27.27-0.2.1v0h0v106.6h23.9V393.47a18.68,18.68,0,0,1,9.34-16.18l5.8-3.35a5.6,5.6,0,0,1,8.41,4.85V500.33h0v34.9l23.9-13.76V500.79h0V394.29a18.68,18.68,0,0,1,9.34-16.18l5.8-3.35a5.6,5.6,0,0,1,8.41,4.85V527.15l-23.61,13.66v0l-23.84,13.82v31.82h0v2.35l23.56-13.66,23.88-13.79v19.29L3143.8,607.9l-0.2.1v0h0v34.74l-23.51,13.57V607.94h-23.9V714.57h23.9V669.42a18.68,18.68,0,0,1,9.34-16.18l5.76-3.32a5.6,5.6,0,0,1,8.41,4.85v59.86h23.9V607.31a18.68,18.68,0,0,1,9.34-16.18l5.8-3.35a5.6,5.6,0,0,1,8.41,4.85V714.55H3215V635.16l47.49-27.41Zm-95.31-34.92V553.84a18.68,18.68,0,0,1,9.34-16.18l5.86-3.38a5.6,5.6,0,0,1,8.41,4.85V559Zm53.11-67.7h12.69a5.6,5.6,0,0,1,5.6,5.6V619.06l-23.9,13.8V510.58A5.6,5.6,0,0,1,3220.56,505Z" transform="translate(-2400 3.24)"/><path d="M3309.57,624.23v-16.3h4.77v16.3h2.86l-0.2,8.5h-4.19v-4.57H3297V607.93h4.77v16.3h7.83Z" transform="translate(-2400 3.24)"/><path d="M3335,616v3.73h-9.88v4.54h11.5v3.93h-16.27V607.93h16v3.93h-11.21V616H3335Z" transform="translate(-2400 3.24)"/><path d="M3345.18,628.16h-4.77V607.93h4.77v7.6h7.34v-7.6h4.77v20.23h-4.77v-8.7h-7.34v8.7Z" transform="translate(-2400 3.24)"/><path d="M3360.51,611.86v-3.93h17v3.93h-6.1v16.3h-4.77v-16.3h-6.13Z" transform="translate(-2400 3.24)"/><path d="M3390.25,607.93c4.07,0,7.63,1.53,7.63,6.53,0,6.36-5.29,6.73-7.74,6.73h-4.54v7h-4.77V607.93h9.42Zm-4.65,9.33h3.73c2.28,0,3.41-.81,3.41-2.77,0-2.75-2.34-2.63-3.41-2.63h-3.73v5.4Z" transform="translate(-2400 3.24)"/><path d="M3407.59,607.93l7.6,20.23h-5.06l-1.3-3.79h-7.34l-1.27,3.79h-5l7.57-20.23h4.83Zm0.2,13-2.6-7.71-2.66,7.71h5.26Z" transform="translate(-2400 3.24)"/><path d="M3416.71,624.23c4.51,0.61,4.62-3.26,4.71-6.65l0.14-9.65h15v20.23h-4.77v-16.3h-5.69l-0.14,7.05c-0.12,3.93-.69,10.4-9.22,9.25v-3.93Z" transform="translate(-2400 3.24)"/><path d="M3444.86,615.27h5c5.89,0,7.28,3.55,7.28,6.62,0,4.39-2.54,6.27-7.31,6.27h-9.77V607.93h4.77v7.34Zm0,9h4c2,0,3.12-.66,3.12-2.51s-1.21-2.51-3.27-2.51h-3.9v5Z" transform="translate(-2400 3.24)"/><path d="M3464.06,628.16h-4.77V607.93h4.77v7.6h7.34v-7.6h4.77v20.23h-4.77v-8.7h-7.34v8.7Z" transform="translate(-2400 3.24)"/><path d="M3486.7,615.27h5c5.89,0,7.25,3.55,7.25,6.62,0,4.39-2.63,6.27-7.28,6.27h-9.77V607.93h4.77v7.34Zm0,9h4c1.94,0,3.09-.66,3.09-2.51s-1.27-2.51-3.24-2.51h-3.9v5Zm19.42-16.3v20.23h-4.77V607.93h4.77Z" transform="translate(-2400 3.24)"/><path d="M3522.56,607.93h4.77v20.23h-4.77V614.95l-8.06,13.21h-4.77V607.93h4.77V621Zm-6.56-5c0,1,.69,1.94,2.51,1.94S3521,604,3521,603h3.21c-0.23,3.81-4.77,4-5.72,4-1.5,0-5.49-.4-5.72-4H3516Z" transform="translate(-2400 3.24)"/><path d="M3548,613.71h-0.09v14.45h-4.77V607.93h6.7l4.83,13.9,4.83-13.9h6.7v20.23h-4.77V613.71h-0.09l-5.06,14.45h-3.24Z" transform="translate(-2400 3.24)"/><path d="M3582.23,607.93h5.17l-6.59,16.1c-1.7,4.16-4,4.51-6.27,4.51a12.11,12.11,0,0,1-3-.38v-3.93a7.77,7.77,0,0,0,2.05.29,2.39,2.39,0,0,0,2.54-1.94l-7.48-14.65h5.69l4.42,9.88Z" transform="translate(-2400 3.24)"/><path d="M3625.07,616v3.73h-9.88v4.54h11.5v3.93h-16.27V607.93h16v3.93h-11.21V616h9.88Z" transform="translate(-2400 3.24)"/><path d="M3643.88,607.93h4.77v20.23h-4.77V614.95l-8.06,13.21H3631V607.93h4.77V621Zm-6.56-5c0,1,.69,1.94,2.51,1.94s2.48-.92,2.51-1.94h3.21c-0.23,3.81-4.77,4-5.72,4-1.5,0-5.49-.4-5.72-4h3.21Z" transform="translate(-2400 3.24)"/><path d="M3317.94,653.39l-0.23,8.5h-4.22v-4.57h-13.67v4.57h-4.22l-0.23-8.5h2c2.34-3.5,3.06-7.31,3.06-11.62v-4.68h14.65v16.3h2.86Zm-13-12.37,0,2.4c-0.09,4.51-.64,7.43-2.34,10h7.77V641h-5.4Z" transform="translate(-2400 3.24)"/><path d="M3329.56,637.09c4.07,0,7.63,1.53,7.63,6.53,0,6.36-5.29,6.73-7.74,6.73h-4.54v7h-4.77V637.09h9.42Zm-4.65,9.33h3.73c2.28,0,3.41-.81,3.41-2.77,0-2.75-2.34-2.63-3.41-2.63h-3.73v5.4Z" transform="translate(-2400 3.24)"/><path d="M3355.19,645.12v3.73h-9.88v4.54h11.5v3.93h-16.27V637.09h16V641h-11.21v4.1h9.88Z" transform="translate(-2400 3.24)"/><path d="M3370.75,637.09c5.29,0,6.24,2.95,6.24,5.14s-1.36,3.55-3.32,4.22v0a5,5,0,0,1,4.31,5.17c0,4.85-4.16,5.66-7.74,5.66h-9.62V637.09h10.14Zm-5.37,8h4.39a2.07,2.07,0,0,0,2.37-2.08c0-.84-0.46-2-2.57-2h-4.19v4Zm0,8.32h4.94a2.42,2.42,0,0,0,2.63-2.28c0-1.94-1.5-2.31-3.24-2.31h-4.33v4.59Z" transform="translate(-2400 3.24)"/><path d="M3385.45,657.32h-4.77V637.09h4.77v7.6h7.34v-7.6h4.77v20.23h-4.77v-8.7h-7.34v8.7Z" transform="translate(-2400 3.24)"/><path d="M3416.67,645.12v3.73h-9.88v4.54h11.5v3.93H3402V637.09h16V641h-11.21v4.1h9.88Z" transform="translate(-2400 3.24)"/><path d="M3430.57,637.09c4.07,0,7.63,1.53,7.63,6.53,0,6.36-5.29,6.73-7.74,6.73h-4.54v7h-4.77V637.09h9.42Zm-4.65,9.33h3.73c2.28,0,3.41-.81,3.41-2.77,0-2.75-2.34-2.63-3.41-2.63h-3.73v5.4Z" transform="translate(-2400 3.24)"/><path d="M3452.25,637.09h5.17l-6.59,16.1c-1.7,4.16-4,4.51-6.27,4.51a12.12,12.12,0,0,1-3-.38v-3.93a7.78,7.78,0,0,0,2.05.29,2.39,2.39,0,0,0,2.54-1.94l-7.48-14.65h5.69l4.42,9.88Z" transform="translate(-2400 3.24)"/><path d="M3477.45,650.18c-0.32,3-2,7.71-9.19,7.71-5.17,0-9.91-2.37-9.91-10.32,0-10.66,7.77-11.07,9.74-11.07,7.2,0,9,4.48,9.13,7.45h-4.68a3.8,3.8,0,0,0-4.22-3.53c-1.07,0-4.83.2-4.83,7,0,3.81,1.73,6.56,5,6.56a4,4,0,0,0,4.25-3.79h4.74Z" transform="translate(-2400 3.24)"/><path d="M3498.58,650.18c-0.32,3-2,7.71-9.19,7.71-5.17,0-9.91-2.37-9.91-10.32,0-10.66,7.77-11.07,9.74-11.07,7.2,0,9,4.48,9.13,7.45h-4.68a3.8,3.8,0,0,0-4.22-3.53c-1.07,0-4.83.2-4.83,7,0,3.81,1.73,6.56,5,6.56a4,4,0,0,0,4.25-3.79h4.74Z" transform="translate(-2400 3.24)"/><path d="M3513.32,637.09h5.61l-8.12,9.25,8.58,11h-5.84l-7.17-9.88h-0.06v9.88h-4.77V637.09h4.77v8.49h0.06Z" transform="translate(-2400 3.24)"/><path d="M3520.79,647.2c0-4.71,2.25-10.69,10.23-10.69,7,0,10.23,4.56,10.23,10.69S3538,657.9,3531,657.9C3523,657.9,3520.79,651.91,3520.79,647.2Zm15.32,0c0-1.85-.23-6.76-5.09-6.76-2.63,0-5.06,1.42-5.06,6.76s2.43,6.76,5.06,6.76C3535.87,654,3536.1,648.91,3536.1,647.2Z" transform="translate(-2400 3.24)"/><path d="M3555.86,637.09h4.77v20.23h-4.77V644.11l-8.06,13.21H3543V637.09h4.77v13.06Zm-6.56-5c0,1,.69,1.94,2.51,1.94s2.48-.92,2.51-1.94h3.21c-0.23,3.81-4.77,4-5.72,4-1.5,0-5.49-.4-5.72-4h3.21Z" transform="translate(-2400 3.24)"/><path d="M3308.55,666.25h5.61L3306,675.5l8.58,11h-5.84l-7.17-9.88h-0.06v9.88h-4.77V666.25h4.77v8.5h0.06Z" transform="translate(-2400 3.24)"/><path d="M3330.46,666.25h5.17l-6.59,16.1c-1.7,4.16-4,4.51-6.27,4.51a12.12,12.12,0,0,1-3-.38v-3.93a7.78,7.78,0,0,0,2.05.29,2.39,2.39,0,0,0,2.54-1.94l-7.48-14.65h5.69l4.42,9.88Z" transform="translate(-2400 3.24)"/><path d="M3335.31,682.55c4.51,0.61,4.62-3.26,4.71-6.65l0.14-9.65h15v20.23h-4.77v-16.3h-5.69l-0.14,7.05c-0.12,3.93-.69,10.4-9.22,9.25v-3.93Z" transform="translate(-2400 3.24)"/><path d="M3364.92,673.59h5c5.89,0,7.28,3.55,7.28,6.62,0,4.39-2.54,6.27-7.31,6.27h-9.77V666.25h4.77v7.34Zm0,9h4c2,0,3.12-.66,3.12-2.51s-1.21-2.51-3.27-2.51h-3.9v5Z" transform="translate(-2400 3.24)"/><path d="M3375.57,670.18v-3.93h17v3.93h-6.1v16.3h-4.77v-16.3h-6.13Z" transform="translate(-2400 3.24)"/><path d="M3409.44,666.25h5.17l-6.59,16.1c-1.7,4.16-4,4.51-6.27,4.51a12.11,12.11,0,0,1-3-.38v-3.93a7.77,7.77,0,0,0,2.05.29,2.39,2.39,0,0,0,2.54-1.94l-7.48-14.65h5.69l4.42,9.88Z" transform="translate(-2400 3.24)"/><path d="M3426.89,666.25c4.07,0,7.63,1.53,7.63,6.53,0,6.36-5.29,6.73-7.74,6.73h-4.54v7h-4.77V666.25h9.42Zm-4.65,9.33H3426c2.28,0,3.41-.81,3.41-2.77,0-2.75-2.34-2.63-3.41-2.63h-3.73v5.4Z" transform="translate(-2400 3.24)"/><path d="M3444.66,673.59h5c5.89,0,7.25,3.55,7.25,6.62,0,4.39-2.63,6.27-7.28,6.27h-9.77V666.25h4.77v7.34Zm0,9h4c1.94,0,3.09-.66,3.09-2.51s-1.27-2.51-3.24-2.51h-3.9v5Zm18.58-16.3v20.23h-4.77V666.25h4.77Z" transform="translate(-2400 3.24)"/><path d="M3488.67,666.25h4.77v20.23h-4.77V673.27l-8.06,13.21h-4.77V666.25h4.77v13.06Z" transform="translate(-2400 3.24)"/><path d="M3514.5,666.25h4.77v20.23h-4.77V673.27l-8.06,13.21h-4.77V666.25h4.77v13.06Z" transform="translate(-2400 3.24)"/><path d="M3541,679.34c-0.32,3-2,7.71-9.19,7.71-5.17,0-9.91-2.37-9.91-10.32,0-10.66,7.77-11.07,9.74-11.07,7.2,0,9,4.48,9.13,7.46h-4.68a3.8,3.8,0,0,0-4.22-3.53c-1.07,0-4.83.2-4.83,7,0,3.81,1.73,6.56,5,6.56a4,4,0,0,0,4.25-3.79H3541Z" transform="translate(-2400 3.24)"/><path d="M3554.78,666.25h5.61l-8.12,9.25,8.58,11H3555l-7.17-9.88h-0.06v9.88H3543V666.25h4.77v8.5h0.06Z" transform="translate(-2400 3.24)"/><path d="M3576.7,666.25h5.17l-6.59,16.1c-1.7,4.16-4,4.51-6.27,4.51a12.12,12.12,0,0,1-3-.38v-3.93a7.78,7.78,0,0,0,2.05.29,2.39,2.39,0,0,0,2.54-1.94l-7.48-14.65h5.69l4.42,9.88Z" transform="translate(-2400 3.24)"/><path d="M3601.72,679.34c-0.32,3-2,7.71-9.19,7.71-5.17,0-9.91-2.37-9.91-10.32,0-10.66,7.77-11.07,9.74-11.07,7.2,0,9,4.48,9.13,7.46h-4.68a3.8,3.8,0,0,0-4.22-3.53c-1.07,0-4.83.2-4.83,7,0,3.81,1.73,6.56,5,6.56a4,4,0,0,0,4.25-3.79h4.74Z" transform="translate(-2400 3.24)"/><path d="M3624,679.34c-0.32,3-2,7.71-9.19,7.71-5.17,0-9.91-2.37-9.91-10.32,0-10.66,7.77-11.07,9.74-11.07,7.2,0,9,4.48,9.13,7.46h-4.68a3.8,3.8,0,0,0-4.22-3.53c-1.07,0-4.83.2-4.83,7,0,3.81,1.73,6.56,5,6.56a4,4,0,0,0,4.25-3.79H3624Z" transform="translate(-2400 3.24)"/><path d="M3625.91,670.18v-3.93h17v3.93h-6.1v16.3H3632v-16.3h-6.13Z" transform="translate(-2400 3.24)"/><path d="M3655.62,666.25c5.29,0,6.24,2.95,6.24,5.14s-1.36,3.55-3.32,4.22v0a5,5,0,0,1,4.31,5.17c0,4.85-4.16,5.66-7.74,5.66h-9.62V666.25h10.14Zm-5.37,8h4.39a2.07,2.07,0,0,0,2.37-2.08c0-.84-0.46-2-2.57-2h-4.19v4Zm0,8.32h4.94a2.42,2.42,0,0,0,2.63-2.28c0-1.94-1.5-2.31-3.24-2.31h-4.33v4.59Z" transform="translate(-2400 3.24)"/><path d="M3676.45,666.25l7.6,20.23H3679l-1.3-3.79h-7.34l-1.27,3.79h-5l7.57-20.23h4.83Zm0.2,13-2.6-7.71-2.66,7.71h5.26Z" transform="translate(-2400 3.24)"/><path d="M3309.43,695.41h4.77v20.23h-4.77V702.44l-8.06,13.21h-4.77V695.41h4.77v13.06Z" transform="translate(-2400 3.24)"/><path d="M3325.19,701.19h-0.09v14.45h-4.77V695.41h6.7l4.83,13.9,4.83-13.9h6.7v20.23h-4.77V701.19h-0.09l-5.06,14.45h-3.24Z" transform="translate(-2400 3.24)"/><path d="M3361.75,703.45v3.73h-9.88v4.54h11.5v3.93H3347.1V695.41h16v3.93h-11.21v4.1h9.88Z" transform="translate(-2400 3.24)"/><path d="M3371,715.64h-4.77V695.41H3371V703h7.34v-7.6h4.77v20.23h-4.77v-8.7H3371v8.7Z" transform="translate(-2400 3.24)"/><path d="M3400.39,695.41h4.77v20.23h-4.77V702.44l-8.06,13.21h-4.77V695.41h4.77v13.06Z" transform="translate(-2400 3.24)"/><path d="M3427,695.41l7.6,20.23h-5.06l-1.3-3.79h-7.34l-1.27,3.79h-5l7.57-20.23H3427Zm0.2,13-2.6-7.71-2.66,7.71h5.26Z" transform="translate(-2400 3.24)"/><path d="M3442.26,715.64h-4.77V695.41h4.77V703h7.34v-7.6h4.77v20.23h-4.77v-8.7h-7.34v8.7Z" transform="translate(-2400 3.24)"/><path d="M3478.7,711.71l-0.23,8.5h-4.22v-4.57h-13.67v4.57h-4.22l-0.23-8.5h2c2.34-3.5,3.06-7.31,3.06-11.62v-4.68h14.65v16.3h2.86Zm-13-12.37,0,2.4c-0.09,4.51-.64,7.43-2.34,10h7.77V699.34h-5.4Z" transform="translate(-2400 3.24)"/><path d="M3491.5,695.41c4.07,0,7.63,1.53,7.63,6.53,0,6.36-5.29,6.73-7.74,6.73h-4.54v7h-4.77V695.41h9.42Zm-4.65,9.33h3.73c2.28,0,3.41-.81,3.41-2.77,0-2.75-2.34-2.63-3.41-2.63h-3.73v5.4Z" transform="translate(-2400 3.24)"/><path d="M3516.2,703.45v3.73h-9.88v4.54h11.5v3.93h-16.27V695.41h16v3.93h-11.21v4.1h9.88Z" transform="translate(-2400 3.24)"/><path d="M3531.94,708.65l-4,7h-5.66l4.77-7.37c-2.31-.32-5.32-1.85-5.32-6.36,0-5.84,5-6.5,7.22-6.5h10.26v20.23h-4.77v-7h-2.54Zm-1.91-9.3c-2.54,0-3.12,1.44-3.12,2.63s0.43,2.74,3.29,2.74h4.28v-5.37H3530Z" transform="translate(-2400 3.24)"/><path d="M3560,695.41c4.07,0,7.63,1.53,7.63,6.53,0,6.36-5.29,6.73-7.74,6.73h-4.54v7h-4.77V695.41H3560Zm-4.65,9.33H3559c2.28,0,3.41-.81,3.41-2.77,0-2.75-2.34-2.63-3.41-2.63h-3.73v5.4Z" transform="translate(-2400 3.24)"/><path d="M3581.63,695.41h5.17l-6.59,16.1c-1.7,4.16-4,4.51-6.27,4.51a12.11,12.11,0,0,1-3-.38v-3.93a7.77,7.77,0,0,0,2.05.29,2.39,2.39,0,0,0,2.54-1.94L3568,695.41h5.69l4.42,9.88Z" transform="translate(-2400 3.24)"/><path d="M3593.45,702.93h4.88c1.65,0,7.69.17,7.69,6.62,0,4.13-3,6.1-7.69,6.1h-9.65V695.41h15.72v3.93h-11v3.58Zm0,8.78h3.87c1.88,0,3.55-.35,3.55-2.28,0-2.43-2.31-2.57-3.47-2.57h-4v4.85Z" transform="translate(-2400 3.24)"/><path d="M3606.87,711.71c4.51,0.61,4.62-3.26,4.71-6.65l0.14-9.65h15v20.23h-4.77v-16.3h-5.69l-0.14,7.05c-0.12,3.93-.69,10.4-9.22,9.25v-3.93Z" transform="translate(-2400 3.24)"/><path d="M3645.8,703.45v3.73h-9.88v4.54h11.5v3.93h-16.27V695.41h16v3.93h-11.21v4.1h9.88Z" transform="translate(-2400 3.24)"/><path d="M3661.92,695.41c5.29,0,6.24,2.95,6.24,5.14s-1.36,3.55-3.32,4.22v0a5,5,0,0,1,4.31,5.17c0,4.85-4.16,5.66-7.74,5.66h-9.62V695.41h10.14Zm-5.37,8h4.39a2.07,2.07,0,0,0,2.37-2.08c0-.84-0.46-2-2.57-2h-4.19v4Zm0,8.32h4.94a2.42,2.42,0,0,0,2.63-2.28c0-1.94-1.5-2.31-3.24-2.31h-4.33v4.59Z" transform="translate(-2400 3.24)"/><path d="M3682.76,695.41l7.6,20.23h-5.06l-1.3-3.79h-7.34l-1.27,3.79h-5l7.57-20.23h4.83Zm0.2,13-2.6-7.71-2.66,7.71H3683Z" transform="translate(-2400 3.24)"/><path d="M3593.25,621c0.09,2.08,1.3,3.61,4.77,3.61s4.1-1.53,4.1-2.66c0-2.31-2.31-2.46-3.47-2.46h-2.86v-3.73h2.37c1.36,0,3.32-.26,3.32-2.25,0-2.46-3.26-2.43-3.93-2.43-1,0-3.55.06-3.7,3.21h-4.65c0.32-5.46,3.7-7.14,8.87-7.14,4.54,0,8.55,1.42,8.55,5.69a4.28,4.28,0,0,1-3.84,4.45v0.06c2.89,0.58,4.48,2,4.48,5.11,0,5.14-5,6.07-9.39,6.07-4.13,0-8.93-.92-9.25-7.54h4.62Z" transform="translate(-2400 3.24)"/></svg>