<svg id="Layer_2" data-name="Layer 2" xmlns="http://www.w3.org/2000/svg" xmlns:xlink="http://www.w3.org/1999/xlink" viewBox="0 0 805.31 613.2">
  <defs>
    <style>
      .cls-1 {
        fill: url(#linear-gradient);
      }
    </style>
    <linearGradient id="linear-gradient" x1="1258.53" y1="-760.83" x2="2063.84" y2="-760.83" gradientTransform="matrix(1, 0, 0, -1, -1258.53, -454.24)" gradientUnits="userSpaceOnUse">
      <stop offset="0" stop-color="#c19f59"/>
      <stop offset="0.06" stop-color="#bb9951"/>
      <stop offset="0.15" stop-color="#ad8c3e"/>
      <stop offset="0.17" stop-color="#b7984a"/>
      <stop offset="0.22" stop-color="#d2b96b"/>
      <stop offset="0.28" stop-color="#fded9f"/>
      <stop offset="0.29" stop-color="#fff0a2"/>
      <stop offset="0.42" stop-color="#fbe591"/>
      <stop offset="0.59" stop-color="#f5d476"/>
      <stop offset="0.72" stop-color="#d2af54"/>
      <stop offset="0.83" stop-color="#b28e36"/>
      <stop offset="1" stop-color="#e9c870"/>
    </linearGradient>
  </defs>
  <title>stain2</title>
  <path class="cls-1" d="M343.81,541.11c31.86,14.85,63.76,75.82,95.07,71.9,25.54-3.2,67.53-3.59,85.72-20.61,12.64-11.82,1.23-29.91.79-46.59s8.94-30.14,12.78-34.3c3.49-3.79,8.72-5.74,13.82-7.28,60.23-18.28,65.26-29.18,128-37.47,7.78-1,16-2.74,21.47-8,6.43-6.24,7.25-15.82,6.36-24.43-3.25-31.35,68.12-53.06,79.9-69.42,3.62-5,12.36-12.42,12.44-18.47C800.81,297.72,810.48,236,801.54,188c-4.13-22.21-30.53-52.74-42.87-72.13-17.64-27.72-122-84.22-154.52-95.2S536.93,5.81,502.58,2l-45.47.63C436.17,0.31,245.67-2,225.23,2.82,130.62,34.49,39,232.82,46.64,335c3.55,35.44-37,46.81-45,95.77-7.44,46,10.84,92.53,33.25,133.37,4.8,8.75,9.25,16.67,12.71,23C60.66,610.92,266.05,621.81,343.81,541.11Z" transform="translate(0 0)"/>
</svg>
