<svg id="Layer_2" data-name="Layer 2" xmlns="http://www.w3.org/2000/svg" xmlns:xlink="http://www.w3.org/1999/xlink" viewBox="0 0 798.66 653.81">
  <defs>
    <style>
      .cls-1 {
        fill: url(#New_Gradient_Swatch);
      }
    </style>
    <linearGradient id="New_Gradient_Swatch" data-name="New Gradient Swatch" x1="1258.53" y1="1433.91" x2="2057.18" y2="1433.91" gradientUnits="userSpaceOnUse">
      <stop offset="0" stop-color="#c19f59"/>
      <stop offset="0.06" stop-color="#bb9951"/>
      <stop offset="0.15" stop-color="#ad8c3e"/>
      <stop offset="0.17" stop-color="#b7984a"/>
      <stop offset="0.22" stop-color="#d2b96b"/>
      <stop offset="0.28" stop-color="#fded9f"/>
      <stop offset="0.29" stop-color="#fff0a2"/>
      <stop offset="0.42" stop-color="#fbe591"/>
      <stop offset="0.59" stop-color="#f5d476"/>
      <stop offset="0.72" stop-color="#d2af54"/>
      <stop offset="0.83" stop-color="#b28e36"/>
      <stop offset="1" stop-color="#e9c870"/>
    </linearGradient>
  </defs>
  <title>stain</title>
  <path class="cls-1" d="M1555.7,1738.11c31.86,14.85,73.76,25.82,105.07,21.9,25.54-3.2,67.53-3.59,85.72-20.61,12.64-11.82,1.23-38.91.79-55.59s-4-33.3-2.65-49.94c0.45-5.47,1.59-11.2,5.43-15.36,3.49-3.79,8.72-5.74,13.82-7.28,60.23-18.28,126.26.82,189-7.47,7.78-1,16-2.74,21.47-8,6.43-6.24,7.25-15.82,6.36-24.43-3.25-31.35-24-62.57-13.19-92.42,18.13-10.05,60.31,15.36,72.09-1,3.62-5,12.36-18.42,12.44-24.47,0.65-48.72,10.32-110.41,1.38-158.42-4.13-22.21-24.53-52.74-36.87-72.13-17.64-27.72-68-29.72-100.52-40.7s-67.22-14.88-101.57-18.69L1329,1109.63c-20.94-2.32-42.44-4.62-62.88.19a1070,1070,0,0,0,11,326.16c2.27,12,5,24.46,13.07,34,12,14.19,33.73,19.4,44.38,34.5,13.51,19.16,3.69,45.36,11.33,67.15,8.2,23.38,35.67,37.11,62,38.41,20.49,1,43.79-3.23,59.38,9.2,22.94,18.29,4.61,73.18,18.31,98.24C1498.61,1741.22,1530.15,1726.2,1555.7,1738.11Z" transform="translate(-1258.53 -1107)"/>
</svg>
